M48
;DRILL file {KiCad 4.0.6} date 03/12/17 16:17:26
;FORMAT={2:4/ absolute / inch / suppress trailing zeros}
FMAT,2
INCH,LZ
T1C0.016
T2C0.031
T3C0.035
T4C0.039
T5C0.051
T6C0.059
T7C0.063
%
G90
G05
M72
T1
X023995Y-022035
X023995Y-02401
X023995Y-02601
X023995Y-02796
X023995Y-029935
X023995Y-031885
X023995Y-033885
X023995Y-035835
X023995Y-037785
X023995Y-03981
X023995Y-042935
X023995Y-041735
X02402Y-02006
X025995Y-02006
X02602Y-042935
X02797Y-02006
X027995Y-042935
X02831Y-037245
X02905Y-036805
X02917Y-03506
X02922Y-03831
X02993Y-020065
X02997Y-042935
X03121Y-037625
X03191Y-020065
X03192Y-042935
X032045Y-03711
X032845Y-035035
X03372Y-036035
X03387Y-020065
X033895Y-042935
X03469Y-024205
X03469Y-025145
X035795Y-038635
X03585Y-020065
X03587Y-042935
X03607Y-025685
X03612Y-02466
X03653Y-032145
X03697Y-033785
X037345Y-030335
X037695Y-02501
X037695Y-02631
X03781Y-020065
X037845Y-042935
X037895Y-03316
X038195Y-035035
X03822Y-027735
X03832Y-03371
X038345Y-02466
X03867Y-02686
X038695Y-033985
X038795Y-027285
X03902Y-03066
X03917Y-031685
X039195Y-03531
X039295Y-02881
X03937Y-020065
X039375Y-042935
X03977Y-030385
X03987Y-030835
X03997Y-03211
X04002Y-034085
X04067Y-03491
X04072Y-031685
X04077Y-03251
X040945Y-02006
X040945Y-042935
X04097Y-029935
X04237Y-033085
X042745Y-032935
X04292Y-02006
X04292Y-042935
X043064Y-034021
X043064Y-034516
X043064Y-035011
X043064Y-035506
X04352Y-03446
X043645Y-030135
X04472Y-025185
X04477Y-033885
X044895Y-02006
X044895Y-042935
X04667Y-030985
X04683Y-034665
X04687Y-02006
X04687Y-042935
X04717Y-02366
X04873Y-023345
X04882Y-02006
X04882Y-042935
X04962Y-02681
X049795Y-024885
X050795Y-02006
X050795Y-042935
X052745Y-042935
X05277Y-02006
X054745Y-02006
X054745Y-022035
X054745Y-02401
X054745Y-025985
X054745Y-027935
X054745Y-02991
X054745Y-031885
X054745Y-03386
X054745Y-03581
X054745Y-037785
X054745Y-03976
X054745Y-041735
X054745Y-042935
T2
X02809Y-020685
X02809Y-021685
X02809Y-022685
X02809Y-023685
X02809Y-024685
X02809Y-025685
X02809Y-026685
X02809Y-027685
X02809Y-028685
X02809Y-029685
X02809Y-030685
X02809Y-031685
X02809Y-032685
X02809Y-033685
X03409Y-020685
X03409Y-021685
X03409Y-022685
X03409Y-023685
X03409Y-024685
X03409Y-025685
X03409Y-026685
X03409Y-027685
X03409Y-028685
X03409Y-029685
X03409Y-030685
X03409Y-031685
X03409Y-032685
X03409Y-033685
X04007Y-025885
X04007Y-028885
X04107Y-025885
X04107Y-028885
X04207Y-025885
X04207Y-028885
X04307Y-025885
X04307Y-028885
T3
X029564Y-03971
X029965Y-03871
X030367Y-03971
X030769Y-03871
X03117Y-03971
X031572Y-03871
X031973Y-03971
X032375Y-03871
T4
X04437Y-025885
X04437Y-029885
X045325Y-028375
X046325Y-028375
X047325Y-028375
X048325Y-028375
X04937Y-025885
X05037Y-025885
X05037Y-029885
T5
X03617Y-023985
X03647Y-026285
X03647Y-027285
X03647Y-028285
X03717Y-023985
X03817Y-023985
X04017Y-023985
X04117Y-023985
X04217Y-023985
X044145Y-03151
X044145Y-03251
X044145Y-03351
X04417Y-023985
X04517Y-023985
X04617Y-023985
X047475Y-031275
X047475Y-032275
X047475Y-033275
X047475Y-034275
X047475Y-035275
X04817Y-023985
X04917Y-023985
X05017Y-023985
T6
X02777Y-03871
X034168Y-03871
T7
X03534Y-03976
X0503Y-03976
T0
M30
