G04 #@! TF.FileFunction,Copper,L1,Top,Signal*
%FSLAX46Y46*%
G04 Gerber Fmt 4.6, Leading zero omitted, Abs format (unit mm)*
G04 Created by KiCad (PCBNEW 4.0.6) date 03/12/17 16:17:21*
%MOMM*%
%LPD*%
G01*
G04 APERTURE LIST*
%ADD10C,0.100000*%
%ADD11C,2.600000*%
%ADD12R,0.800000X0.800000*%
%ADD13C,2.200000*%
%ADD14C,1.500000*%
%ADD15C,2.000000*%
%ADD16R,1.700000X1.700000*%
%ADD17O,1.700000X1.700000*%
%ADD18C,1.600000*%
%ADD19R,1.600000X2.400000*%
%ADD20O,1.600000X2.400000*%
%ADD21C,0.600000*%
%ADD22C,0.250000*%
%ADD23C,1.000000*%
%ADD24C,0.400000*%
%ADD25C,0.800000*%
%ADD26C,0.254000*%
G04 APERTURE END LIST*
D10*
D11*
X89763000Y-100990500D03*
X127763000Y-100990500D03*
D12*
X98222000Y-65138500D03*
X98222000Y-66738500D03*
X108026783Y-86412350D03*
X106426783Y-86412350D03*
X108026783Y-87669586D03*
X106426783Y-87669586D03*
X108026783Y-88926822D03*
X106426783Y-88926822D03*
X108026783Y-90184058D03*
X106426783Y-90184058D03*
D13*
X70537000Y-98323500D03*
X86787000Y-98323500D03*
D14*
X76112000Y-98323500D03*
X77132000Y-100863500D03*
X75092000Y-100863500D03*
X78152000Y-98323500D03*
X79172000Y-100863500D03*
X80192000Y-98323500D03*
X81212000Y-100863500D03*
X82232000Y-98323500D03*
D15*
X91872000Y-60922000D03*
X94412000Y-60922000D03*
X96952000Y-60922000D03*
X92634000Y-71844000D03*
X92634000Y-69304000D03*
X92634000Y-66764000D03*
X120586500Y-89598500D03*
X120586500Y-87058500D03*
X120586500Y-84518500D03*
X120586500Y-81978500D03*
X120586500Y-79438500D03*
D16*
X122745500Y-72072500D03*
D17*
X120205500Y-72072500D03*
X117665500Y-72072500D03*
X115125500Y-72072500D03*
D15*
X112128500Y-85115500D03*
X112128500Y-82575500D03*
X112128500Y-80035500D03*
X102032000Y-60922000D03*
X104572000Y-60922000D03*
X107112000Y-60922000D03*
X112192000Y-60922000D03*
X114732000Y-60922000D03*
X117272000Y-60922000D03*
X122352000Y-60922000D03*
X124892000Y-60922000D03*
X127432000Y-60922000D03*
D18*
X86588800Y-83020000D03*
X86588800Y-80480000D03*
X86588800Y-77940000D03*
X86588800Y-75400000D03*
X86588800Y-72860000D03*
X86588800Y-70320000D03*
X86588800Y-65240000D03*
X86588800Y-67780000D03*
X86588800Y-62700000D03*
X86588800Y-60160000D03*
X86588800Y-57620000D03*
X86588800Y-55080000D03*
X86588800Y-85560000D03*
X86588800Y-52540000D03*
X71348800Y-60160000D03*
X71348800Y-57620000D03*
X71348800Y-55080000D03*
X71348800Y-62700000D03*
X71348800Y-52540000D03*
X71348800Y-65240000D03*
X71348800Y-67780000D03*
X71348800Y-85560000D03*
X71348800Y-80480000D03*
X71348800Y-75400000D03*
X71348800Y-83020000D03*
X71348800Y-70320000D03*
X71348800Y-72860000D03*
X71348800Y-77940000D03*
D19*
X106858000Y-73368000D03*
D20*
X109398000Y-65748000D03*
X109398000Y-73368000D03*
X106858000Y-65748000D03*
D19*
X101778000Y-73368000D03*
D20*
X104318000Y-65748000D03*
X104318000Y-73368000D03*
X101778000Y-65748000D03*
D15*
X127940000Y-75908000D03*
X127940000Y-65748000D03*
X125400000Y-65748000D03*
X112700000Y-65748000D03*
X112700000Y-75908000D03*
D21*
X123774400Y-59296400D03*
X118948400Y-88049200D03*
X79273600Y-95567600D03*
X71907600Y-94602400D03*
X73787200Y-93484800D03*
X88112800Y-63868400D03*
X88112800Y-61480804D03*
X92786400Y-81648400D03*
X100000000Y-50965200D03*
X96037600Y-50965200D03*
X91059200Y-50965200D03*
X71044000Y-50952500D03*
X86030000Y-50965200D03*
X81051600Y-50965200D03*
X76022400Y-50965200D03*
X61011000Y-50952502D03*
X100012500Y-109055000D03*
X96126500Y-109055000D03*
X91110000Y-109055000D03*
X86093500Y-109055000D03*
X81077000Y-109055000D03*
X76124000Y-109055002D03*
X71107500Y-109055000D03*
X60947500Y-55969000D03*
X60947500Y-60985500D03*
X60947500Y-66065500D03*
X60947500Y-71018500D03*
X60947500Y-76035002D03*
X60947500Y-80988000D03*
X60947500Y-86068000D03*
X60947500Y-91020998D03*
X60947500Y-95974000D03*
X60947500Y-101117500D03*
X60947502Y-106007000D03*
X60947500Y-109055000D03*
X66091000Y-109055000D03*
X104000500Y-109055000D03*
X109017000Y-109055000D03*
X114033500Y-109055000D03*
X119050000Y-109055000D03*
X124003000Y-109055000D03*
X129019500Y-109055000D03*
X133972500Y-109055000D03*
X139052500Y-109055000D03*
X139052500Y-106007000D03*
X139052500Y-100990500D03*
X139052500Y-95974000D03*
X139052500Y-90957500D03*
X139052500Y-86004500D03*
X139052500Y-80988000D03*
X139052500Y-75971500D03*
X139052500Y-70955000D03*
X139052500Y-66002000D03*
X139052500Y-60985500D03*
X139052500Y-55969000D03*
X134036000Y-50952500D03*
X129019500Y-50952500D03*
X124003000Y-50952500D03*
X119050000Y-50952500D03*
X114033500Y-50952500D03*
X109017000Y-50952500D03*
X104000500Y-50952500D03*
X139052500Y-50952500D03*
X66027500Y-50952500D03*
X126035000Y-68097500D03*
X126479500Y-63208000D03*
X113589000Y-63970000D03*
X119812000Y-60096500D03*
X110858500Y-76543000D03*
X97396500Y-62636500D03*
X74092000Y-89052500D03*
X83426500Y-88989000D03*
X81394500Y-94259500D03*
X85649000Y-91529000D03*
X90919500Y-98133000D03*
X97015500Y-88989000D03*
X99555500Y-89687500D03*
X98539500Y-69304000D03*
X118542000Y-78702000D03*
X113716000Y-86068000D03*
X110541000Y-87528500D03*
X103302000Y-88671500D03*
X108572500Y-83655000D03*
X96253500Y-84226500D03*
X99111000Y-77876500D03*
X101524000Y-81559500D03*
X98285500Y-86322000D03*
X101651000Y-86576000D03*
X103556000Y-82575500D03*
X103429000Y-80480000D03*
X101270000Y-78321000D03*
X99492000Y-80480000D03*
X93904000Y-85814000D03*
X94856500Y-77051000D03*
X99809500Y-73177500D03*
X97079000Y-70447000D03*
X95745500Y-63525502D03*
X91618000Y-65240000D03*
X91745000Y-62636500D03*
X95745500Y-66827500D03*
X98222000Y-68224500D03*
X109382045Y-86412350D03*
X109382045Y-87669586D03*
X109382045Y-88926822D03*
X109382045Y-90184058D03*
X74219000Y-97307500D03*
X107620000Y-84036000D03*
X97333000Y-85623500D03*
X101015998Y-77178000D03*
X104064000Y-76035000D03*
D22*
X94412000Y-60922000D02*
X98222000Y-64732000D01*
X98222000Y-64732000D02*
X98222000Y-65138500D01*
X111112500Y-88100000D02*
X118897600Y-88100000D01*
X118897600Y-88100000D02*
X118948400Y-88049200D01*
X110541000Y-87528500D02*
X111112500Y-88100000D01*
D23*
X79172000Y-100863500D02*
X79172000Y-100088800D01*
X79172000Y-100088800D02*
X78152000Y-99068800D01*
X78152000Y-99068800D02*
X78152000Y-98323500D01*
D24*
X81394500Y-94259500D02*
X80581700Y-94259500D01*
X80581700Y-94259500D02*
X79273600Y-95567600D01*
X73787200Y-93484800D02*
X73025200Y-93484800D01*
X73025200Y-93484800D02*
X71907600Y-94602400D01*
D22*
X91618000Y-62700000D02*
X91465600Y-62700000D01*
X91465600Y-62700000D02*
X90246404Y-61480804D01*
X90246404Y-61480804D02*
X88537064Y-61480804D01*
X88537064Y-61480804D02*
X88112800Y-61480804D01*
X93904000Y-85814000D02*
X93904000Y-82766000D01*
X93904000Y-82766000D02*
X92786400Y-81648400D01*
X96037600Y-50965200D02*
X100000000Y-50965200D01*
X86030000Y-50965200D02*
X91059200Y-50965200D01*
X66027500Y-50952500D02*
X71044000Y-50952500D01*
X76022400Y-50965200D02*
X81051600Y-50965200D01*
X101270000Y-78321000D02*
X102413000Y-77178000D01*
X99809500Y-73177500D02*
X99509501Y-73477499D01*
X102413000Y-77178000D02*
X102921000Y-76670000D01*
X101270000Y-76162000D02*
X102286000Y-77178000D01*
X99509501Y-73477499D02*
X99509501Y-74782501D01*
X99509501Y-74782501D02*
X100889000Y-76162000D01*
X100889000Y-76162000D02*
X101270000Y-76162000D01*
X102286000Y-77178000D02*
X102413000Y-77178000D01*
X104000500Y-109055000D02*
X100012500Y-109055000D01*
X100012500Y-109055000D02*
X99047500Y-109055000D01*
X96126500Y-109055000D02*
X100012500Y-109055000D01*
X86093500Y-109055000D02*
X91110000Y-109055000D01*
X81076998Y-109055002D02*
X81077000Y-109055000D01*
X76124000Y-109055002D02*
X81076998Y-109055002D01*
X66091000Y-109055000D02*
X71107500Y-109055000D01*
X60947500Y-51016002D02*
X61011000Y-50952502D01*
X60947500Y-55969000D02*
X60947500Y-51016002D01*
X61011002Y-50952500D02*
X61011000Y-50952502D01*
X66027500Y-50952500D02*
X61011002Y-50952500D01*
X60947500Y-65641236D02*
X60947500Y-60985500D01*
X60947500Y-66065500D02*
X60947500Y-65641236D01*
X60947500Y-76035002D02*
X60947500Y-71018500D01*
X60947500Y-85643736D02*
X60947500Y-80988000D01*
X60947500Y-86068000D02*
X60947500Y-85643736D01*
X60947500Y-95549736D02*
X60947500Y-91020998D01*
X60947500Y-95974000D02*
X60947500Y-95549736D01*
X60947502Y-101117502D02*
X60947500Y-101117500D01*
X60947502Y-106007000D02*
X60947502Y-101117502D01*
X60947500Y-106007002D02*
X60947502Y-106007000D01*
X60947500Y-109055000D02*
X60947500Y-106007002D01*
X114033500Y-109055000D02*
X109017000Y-109055000D01*
X124003000Y-109055000D02*
X119050000Y-109055000D01*
X133972500Y-109055000D02*
X129019500Y-109055000D01*
X139052500Y-106007000D02*
X139052500Y-109055000D01*
X139052500Y-100990500D02*
X139052500Y-106007000D01*
X139052500Y-90957500D02*
X139052500Y-95974000D01*
X139052500Y-80988000D02*
X139052500Y-86004500D01*
X139052500Y-70955000D02*
X139052500Y-75971500D01*
X139052500Y-60985500D02*
X139052500Y-66002000D01*
X139052500Y-50952500D02*
X139052500Y-55969000D01*
X139052500Y-50952500D02*
X134036000Y-50952500D01*
X129019500Y-50952500D02*
X124003000Y-50952500D01*
X119050000Y-50952500D02*
X114033500Y-50952500D01*
X109017000Y-50952500D02*
X104000500Y-50952500D01*
X130289500Y-66573500D02*
X128765500Y-68097500D01*
X128765500Y-68097500D02*
X126035000Y-68097500D01*
X130289500Y-64732000D02*
X130289500Y-66573500D01*
X128765500Y-63208000D02*
X130289500Y-64732000D01*
X126479500Y-63208000D02*
X128765500Y-63208000D01*
X115158999Y-69004001D02*
X119812000Y-64351000D01*
X119812000Y-64351000D02*
X119812000Y-60096500D01*
X98539500Y-69304000D02*
X98839499Y-69004001D01*
X98839499Y-69004001D02*
X115158999Y-69004001D01*
X105854569Y-78376833D02*
X106278833Y-78376833D01*
X105532167Y-78376833D02*
X105854569Y-78376833D01*
X103429000Y-80480000D02*
X105532167Y-78376833D01*
X110858500Y-76543000D02*
X105016500Y-76543000D01*
X105016500Y-76543000D02*
X104953000Y-76606500D01*
X81394500Y-94259500D02*
X81394500Y-91021000D01*
X81394500Y-91021000D02*
X83426500Y-88989000D01*
X85649000Y-91529000D02*
X84125000Y-91529000D01*
X84125000Y-91529000D02*
X81394500Y-94259500D01*
X90919500Y-98133000D02*
X90919500Y-96799500D01*
X90919500Y-96799500D02*
X85649000Y-91529000D01*
X98686736Y-90132000D02*
X98158500Y-90132000D01*
X98158500Y-90132000D02*
X97015500Y-88989000D01*
X99555500Y-89687500D02*
X99131236Y-89687500D01*
X99131236Y-89687500D02*
X98686736Y-90132000D01*
X119167501Y-83518501D02*
X118542000Y-82893000D01*
X118542000Y-82893000D02*
X118542000Y-78702000D01*
X120586500Y-84518500D02*
X119586501Y-83518501D01*
X119586501Y-83518501D02*
X119167501Y-83518501D01*
X109334500Y-91910000D02*
X110541000Y-90703500D01*
X110541000Y-90703500D02*
X110541000Y-87528500D01*
X106116236Y-91910000D02*
X109334500Y-91910000D01*
X103302000Y-88671500D02*
X103302000Y-89095764D01*
X103302000Y-89095764D02*
X106116236Y-91910000D01*
X104465236Y-76670000D02*
X104528736Y-76606500D01*
X102921000Y-76670000D02*
X104465236Y-76670000D01*
X104528736Y-76606500D02*
X104953000Y-76606500D01*
X94856500Y-77051000D02*
X98285500Y-77051000D01*
X98285500Y-77051000D02*
X99111000Y-77876500D01*
X101651000Y-86576000D02*
X98539500Y-86576000D01*
X98539500Y-86576000D02*
X98285500Y-86322000D01*
X103429000Y-80480000D02*
X103429000Y-82448500D01*
X103429000Y-82448500D02*
X103556000Y-82575500D01*
X99492000Y-80480000D02*
X101270000Y-78702000D01*
X101270000Y-78702000D02*
X101270000Y-78321000D01*
X93904000Y-85814000D02*
X99238000Y-80480000D01*
X99238000Y-80480000D02*
X99492000Y-80480000D01*
X97079000Y-70447000D02*
X99809500Y-73177500D01*
X95745500Y-66827500D02*
X95745500Y-63525502D01*
X95745500Y-66827500D02*
X91618000Y-62700000D01*
X91618000Y-62700000D02*
X91681500Y-62700000D01*
X91681500Y-62700000D02*
X91745000Y-62636500D01*
X98222000Y-66738500D02*
X98222000Y-68224500D01*
X109382045Y-86412350D02*
X108026783Y-86412350D01*
X109382045Y-87669586D02*
X108026783Y-87669586D01*
X108026783Y-88926822D02*
X109382045Y-88926822D01*
X109382045Y-90184058D02*
X108026783Y-90184058D01*
D25*
X104572000Y-60922000D02*
X101778000Y-63716000D01*
X101778000Y-63716000D02*
X101778000Y-65748000D01*
X109398000Y-65748000D02*
X112700000Y-65748000D01*
D23*
X113208000Y-58636000D02*
X121590000Y-58636000D01*
X121590000Y-58636000D02*
X122352000Y-59398000D01*
X122352000Y-59398000D02*
X122352000Y-60922000D01*
X102032000Y-60922000D02*
X102032000Y-59398000D01*
X102032000Y-59398000D02*
X102794000Y-58636000D01*
X102794000Y-58636000D02*
X111684000Y-58636000D01*
X111684000Y-58636000D02*
X113208000Y-58636000D01*
X113208000Y-58636000D02*
X113063787Y-58636000D01*
X113063787Y-58636000D02*
X112192000Y-59507787D01*
X112192000Y-60922000D02*
X112192000Y-59507787D01*
X112192000Y-59507787D02*
X111684000Y-58999787D01*
X111684000Y-58999787D02*
X111684000Y-58636000D01*
D25*
X125400000Y-65748000D02*
X127940000Y-65748000D01*
D23*
X124892000Y-60922000D02*
X122352000Y-63462000D01*
X122352000Y-63462000D02*
X122352000Y-67208500D01*
X122352000Y-67208500D02*
X126940001Y-71796501D01*
X126940001Y-71796501D02*
X126940001Y-74908001D01*
X126940001Y-74908001D02*
X127940000Y-75908000D01*
D22*
X74219000Y-97307500D02*
X75096000Y-97307500D01*
X75096000Y-97307500D02*
X76112000Y-98323500D01*
X107620000Y-84036000D02*
X109080500Y-85496500D01*
X109080500Y-85496500D02*
X109906000Y-85496500D01*
X109906000Y-85496500D02*
X111468000Y-87058500D01*
X111468000Y-87058500D02*
X112674500Y-87058500D01*
X112674500Y-87058500D02*
X120586500Y-87058500D01*
X97333000Y-85623500D02*
X97333000Y-83972500D01*
X97333000Y-83972500D02*
X103810000Y-77495500D01*
X103810000Y-77495500D02*
X118643500Y-77495500D01*
X118643500Y-77495500D02*
X119586501Y-78438501D01*
X119586501Y-78438501D02*
X120586500Y-79438500D01*
D25*
X104318000Y-65748000D02*
X104318000Y-65348000D01*
X104318000Y-65348000D02*
X106458000Y-63208000D01*
X106458000Y-63208000D02*
X112446000Y-63208000D01*
X112446000Y-63208000D02*
X113732001Y-61921999D01*
X113732001Y-61921999D02*
X114732000Y-60922000D01*
D24*
X104826000Y-73876000D02*
X104318000Y-73368000D01*
D22*
X86588800Y-80480000D02*
X97713998Y-80480000D01*
X97713998Y-80480000D02*
X100715999Y-77477999D01*
X100715999Y-77477999D02*
X101015998Y-77178000D01*
X86588800Y-62700000D02*
X90531002Y-62700000D01*
X90531002Y-62700000D02*
X100652999Y-72821997D01*
X100652999Y-72821997D02*
X100652999Y-74782999D01*
X101905000Y-76035000D02*
X103639736Y-76035000D01*
X100652999Y-74782999D02*
X101905000Y-76035000D01*
X103639736Y-76035000D02*
X104064000Y-76035000D01*
D26*
G36*
X139315000Y-109315000D02*
X60685000Y-109315000D01*
X60685000Y-105442619D01*
X62764613Y-105442619D01*
X63104155Y-106264372D01*
X63732321Y-106893636D01*
X64553481Y-107234611D01*
X65442619Y-107235387D01*
X66264372Y-106895845D01*
X66893636Y-106267679D01*
X67234611Y-105446519D01*
X67234614Y-105442619D01*
X132764613Y-105442619D01*
X133104155Y-106264372D01*
X133732321Y-106893636D01*
X134553481Y-107234611D01*
X135442619Y-107235387D01*
X136264372Y-106895845D01*
X136893636Y-106267679D01*
X137234611Y-105446519D01*
X137235387Y-104557381D01*
X136895845Y-103735628D01*
X136267679Y-103106364D01*
X135446519Y-102765389D01*
X134557381Y-102764613D01*
X133735628Y-103104155D01*
X133106364Y-103732321D01*
X132765389Y-104553481D01*
X132764613Y-105442619D01*
X67234614Y-105442619D01*
X67235387Y-104557381D01*
X66895845Y-103735628D01*
X66687485Y-103526903D01*
X69426682Y-103526903D01*
X69705455Y-104201586D01*
X70221199Y-104718230D01*
X70895395Y-104998181D01*
X71625403Y-104998818D01*
X72300086Y-104720045D01*
X72816730Y-104204301D01*
X73096681Y-103530105D01*
X73096683Y-103526903D01*
X84226682Y-103526903D01*
X84505455Y-104201586D01*
X85021199Y-104718230D01*
X85695395Y-104998181D01*
X86425403Y-104998818D01*
X87100086Y-104720045D01*
X87616730Y-104204301D01*
X87896681Y-103530105D01*
X87897318Y-102800097D01*
X87618545Y-102125414D01*
X87102801Y-101608770D01*
X86536708Y-101373707D01*
X87827665Y-101373707D01*
X88121630Y-102085158D01*
X88665479Y-102629957D01*
X89376416Y-102925163D01*
X90146207Y-102925835D01*
X90857658Y-102631870D01*
X91402457Y-102088021D01*
X91662060Y-101462825D01*
X94277587Y-101462825D01*
X94639916Y-102339729D01*
X95310242Y-103011226D01*
X96186513Y-103375085D01*
X97135325Y-103375913D01*
X98012229Y-103013584D01*
X98683726Y-102343258D01*
X99047585Y-101466987D01*
X99047588Y-101462825D01*
X118477587Y-101462825D01*
X118839916Y-102339729D01*
X119510242Y-103011226D01*
X120386513Y-103375085D01*
X121335325Y-103375913D01*
X122212229Y-103013584D01*
X122866995Y-102359959D01*
X126573146Y-102359959D01*
X126708504Y-102657955D01*
X127426880Y-102934566D01*
X128196427Y-102915210D01*
X128817496Y-102657955D01*
X128952854Y-102359959D01*
X127763000Y-101170105D01*
X126573146Y-102359959D01*
X122866995Y-102359959D01*
X122883726Y-102343258D01*
X123247585Y-101466987D01*
X123248294Y-100654380D01*
X125818934Y-100654380D01*
X125838290Y-101423927D01*
X126095545Y-102044996D01*
X126393541Y-102180354D01*
X127583395Y-100990500D01*
X127942605Y-100990500D01*
X129132459Y-102180354D01*
X129430455Y-102044996D01*
X129707066Y-101326620D01*
X129687710Y-100557073D01*
X129430455Y-99936004D01*
X129132459Y-99800646D01*
X127942605Y-100990500D01*
X127583395Y-100990500D01*
X126393541Y-99800646D01*
X126095545Y-99936004D01*
X125818934Y-100654380D01*
X123248294Y-100654380D01*
X123248413Y-100518175D01*
X122886084Y-99641271D01*
X122865890Y-99621041D01*
X126573146Y-99621041D01*
X127763000Y-100810895D01*
X128952854Y-99621041D01*
X128817496Y-99323045D01*
X128099120Y-99046434D01*
X127329573Y-99065790D01*
X126708504Y-99323045D01*
X126573146Y-99621041D01*
X122865890Y-99621041D01*
X122215758Y-98969774D01*
X121339487Y-98605915D01*
X120390675Y-98605087D01*
X119513771Y-98967416D01*
X118842274Y-99637742D01*
X118478415Y-100514013D01*
X118477587Y-101462825D01*
X99047588Y-101462825D01*
X99048413Y-100518175D01*
X98686084Y-99641271D01*
X98015758Y-98969774D01*
X97139487Y-98605915D01*
X96190675Y-98605087D01*
X95313771Y-98967416D01*
X94642274Y-99637742D01*
X94278415Y-100514013D01*
X94277587Y-101462825D01*
X91662060Y-101462825D01*
X91697663Y-101377084D01*
X91698335Y-100607293D01*
X91404370Y-99895842D01*
X90860521Y-99351043D01*
X90149584Y-99055837D01*
X89379793Y-99055165D01*
X88668342Y-99349130D01*
X88123543Y-99892979D01*
X87828337Y-100603916D01*
X87827665Y-101373707D01*
X86536708Y-101373707D01*
X86428605Y-101328819D01*
X85698597Y-101328182D01*
X85023914Y-101606955D01*
X84507270Y-102122699D01*
X84227319Y-102796895D01*
X84226682Y-103526903D01*
X73096683Y-103526903D01*
X73097318Y-102800097D01*
X72818545Y-102125414D01*
X72302801Y-101608770D01*
X71628605Y-101328819D01*
X70898597Y-101328182D01*
X70223914Y-101606955D01*
X69707270Y-102122699D01*
X69427319Y-102796895D01*
X69426682Y-103526903D01*
X66687485Y-103526903D01*
X66267679Y-103106364D01*
X65446519Y-102765389D01*
X64557381Y-102764613D01*
X63735628Y-103104155D01*
X63106364Y-103732321D01*
X62765389Y-104553481D01*
X62764613Y-105442619D01*
X60685000Y-105442619D01*
X60685000Y-99548368D01*
X69491737Y-99548368D01*
X69602641Y-99825599D01*
X70248593Y-100068823D01*
X70938453Y-100046336D01*
X71471359Y-99825599D01*
X71582263Y-99548368D01*
X70537000Y-98503105D01*
X69491737Y-99548368D01*
X60685000Y-99548368D01*
X60685000Y-98035093D01*
X68791677Y-98035093D01*
X68814164Y-98724953D01*
X69034901Y-99257859D01*
X69312132Y-99368763D01*
X70357395Y-98323500D01*
X70716605Y-98323500D01*
X71761868Y-99368763D01*
X72039099Y-99257859D01*
X72282323Y-98611907D01*
X72259836Y-97922047D01*
X72081981Y-97492667D01*
X73283838Y-97492667D01*
X73425883Y-97836443D01*
X73688673Y-98099692D01*
X74032201Y-98242338D01*
X74404167Y-98242662D01*
X74727187Y-98109193D01*
X74726760Y-98597785D01*
X74937169Y-99107015D01*
X75308195Y-99478688D01*
X74817715Y-99478260D01*
X74308485Y-99688669D01*
X73918539Y-100077936D01*
X73707241Y-100586798D01*
X73706760Y-101137785D01*
X73917169Y-101647015D01*
X74306436Y-102036961D01*
X74815298Y-102248259D01*
X75366285Y-102248740D01*
X75875515Y-102038331D01*
X76112071Y-101802187D01*
X76346436Y-102036961D01*
X76855298Y-102248259D01*
X77406285Y-102248740D01*
X77915515Y-102038331D01*
X78119183Y-101835017D01*
X78380088Y-101835017D01*
X78448077Y-102075960D01*
X78967171Y-102260701D01*
X79517448Y-102232730D01*
X79895923Y-102075960D01*
X79963912Y-101835017D01*
X79172000Y-101043105D01*
X78380088Y-101835017D01*
X78119183Y-101835017D01*
X78305461Y-101649064D01*
X78375497Y-101480398D01*
X78992395Y-100863500D01*
X78375801Y-100246906D01*
X78306831Y-100079985D01*
X77948124Y-99720653D01*
X78435423Y-99695883D01*
X78380088Y-99891983D01*
X79172000Y-100683895D01*
X79963912Y-99891983D01*
X79911640Y-99706740D01*
X79915298Y-99708259D01*
X80408430Y-99708689D01*
X80038539Y-100077936D01*
X79968503Y-100246602D01*
X79351605Y-100863500D01*
X79968199Y-101480094D01*
X80037169Y-101647015D01*
X80426436Y-102036961D01*
X80935298Y-102248259D01*
X81486285Y-102248740D01*
X81995515Y-102038331D01*
X82385461Y-101649064D01*
X82596759Y-101140202D01*
X82597240Y-100589215D01*
X82386831Y-100079985D01*
X82015805Y-99708312D01*
X82506285Y-99708740D01*
X82894415Y-99548368D01*
X85741737Y-99548368D01*
X85852641Y-99825599D01*
X86498593Y-100068823D01*
X87188453Y-100046336D01*
X87721359Y-99825599D01*
X87832263Y-99548368D01*
X86787000Y-98503105D01*
X85741737Y-99548368D01*
X82894415Y-99548368D01*
X83015515Y-99498331D01*
X83405461Y-99109064D01*
X83616759Y-98600202D01*
X83617240Y-98049215D01*
X83611405Y-98035093D01*
X85041677Y-98035093D01*
X85064164Y-98724953D01*
X85284901Y-99257859D01*
X85562132Y-99368763D01*
X86607395Y-98323500D01*
X86966605Y-98323500D01*
X88011868Y-99368763D01*
X88289099Y-99257859D01*
X88532323Y-98611907D01*
X88509836Y-97922047D01*
X88289099Y-97389141D01*
X88011868Y-97278237D01*
X86966605Y-98323500D01*
X86607395Y-98323500D01*
X85562132Y-97278237D01*
X85284901Y-97389141D01*
X85041677Y-98035093D01*
X83611405Y-98035093D01*
X83406831Y-97539985D01*
X83017564Y-97150039D01*
X82893763Y-97098632D01*
X85741737Y-97098632D01*
X86787000Y-98143895D01*
X87832263Y-97098632D01*
X87721359Y-96821401D01*
X87075407Y-96578177D01*
X86385547Y-96600664D01*
X85852641Y-96821401D01*
X85741737Y-97098632D01*
X82893763Y-97098632D01*
X82508702Y-96938741D01*
X81957715Y-96938260D01*
X81448485Y-97148669D01*
X81211929Y-97384813D01*
X80977564Y-97150039D01*
X80468702Y-96938741D01*
X79917715Y-96938260D01*
X79408485Y-97148669D01*
X79018539Y-97537936D01*
X78948503Y-97706602D01*
X78331605Y-98323500D01*
X78948199Y-98940094D01*
X79017169Y-99107015D01*
X79375876Y-99466347D01*
X78888577Y-99491117D01*
X78943912Y-99295017D01*
X78152000Y-98503105D01*
X77360088Y-99295017D01*
X77412360Y-99480260D01*
X77408702Y-99478741D01*
X76915570Y-99478311D01*
X77285461Y-99109064D01*
X77355497Y-98940398D01*
X77972395Y-98323500D01*
X77355801Y-97706906D01*
X77286831Y-97539985D01*
X77099157Y-97351983D01*
X77360088Y-97351983D01*
X78152000Y-98143895D01*
X78943912Y-97351983D01*
X78875923Y-97111040D01*
X78356829Y-96926299D01*
X77806552Y-96954270D01*
X77428077Y-97111040D01*
X77360088Y-97351983D01*
X77099157Y-97351983D01*
X76897564Y-97150039D01*
X76388702Y-96938741D01*
X75837715Y-96938260D01*
X75812132Y-96948830D01*
X75633401Y-96770099D01*
X75386839Y-96605352D01*
X75096000Y-96547500D01*
X74781463Y-96547500D01*
X74749327Y-96515308D01*
X74405799Y-96372662D01*
X74033833Y-96372338D01*
X73690057Y-96514383D01*
X73426808Y-96777173D01*
X73284162Y-97120701D01*
X73283838Y-97492667D01*
X72081981Y-97492667D01*
X72039099Y-97389141D01*
X71761868Y-97278237D01*
X70716605Y-98323500D01*
X70357395Y-98323500D01*
X69312132Y-97278237D01*
X69034901Y-97389141D01*
X68791677Y-98035093D01*
X60685000Y-98035093D01*
X60685000Y-97098632D01*
X69491737Y-97098632D01*
X70537000Y-98143895D01*
X71582263Y-97098632D01*
X71471359Y-96821401D01*
X70825407Y-96578177D01*
X70135547Y-96600664D01*
X69602641Y-96821401D01*
X69491737Y-97098632D01*
X60685000Y-97098632D01*
X60685000Y-93094491D01*
X88227735Y-93094491D01*
X88460932Y-93658871D01*
X88892357Y-94091051D01*
X89456330Y-94325233D01*
X90066991Y-94325765D01*
X90631371Y-94092568D01*
X91063551Y-93661143D01*
X91297733Y-93097170D01*
X91298265Y-92486509D01*
X91065068Y-91922129D01*
X90855112Y-91711805D01*
X110560674Y-91711805D01*
X110847043Y-92404872D01*
X111376839Y-92935593D01*
X112069405Y-93223172D01*
X112819305Y-93223826D01*
X113512372Y-92937457D01*
X114043093Y-92407661D01*
X114330672Y-91715095D01*
X114331326Y-90965195D01*
X114044957Y-90272128D01*
X113515161Y-89741407D01*
X112822595Y-89453828D01*
X112072695Y-89453174D01*
X111379628Y-89739543D01*
X110848907Y-90269339D01*
X110561328Y-90961905D01*
X110560674Y-91711805D01*
X90855112Y-91711805D01*
X90633643Y-91489949D01*
X90069670Y-91255767D01*
X89459009Y-91255235D01*
X88894629Y-91488432D01*
X88462449Y-91919857D01*
X88228267Y-92483830D01*
X88227735Y-93094491D01*
X60685000Y-93094491D01*
X60685000Y-90469808D01*
X105391783Y-90469808D01*
X105391783Y-90710368D01*
X105488456Y-90943757D01*
X105667085Y-91122385D01*
X105900474Y-91219058D01*
X106141033Y-91219058D01*
X106299783Y-91060308D01*
X106299783Y-90311058D01*
X105550533Y-90311058D01*
X105391783Y-90469808D01*
X60685000Y-90469808D01*
X60685000Y-89212572D01*
X105391783Y-89212572D01*
X105391783Y-89453132D01*
X105434160Y-89555440D01*
X105391783Y-89657748D01*
X105391783Y-89898308D01*
X105550533Y-90057058D01*
X106299783Y-90057058D01*
X106299783Y-89053822D01*
X105550533Y-89053822D01*
X105391783Y-89212572D01*
X60685000Y-89212572D01*
X60685000Y-87955336D01*
X105391783Y-87955336D01*
X105391783Y-88195896D01*
X105434160Y-88298204D01*
X105391783Y-88400512D01*
X105391783Y-88641072D01*
X105550533Y-88799822D01*
X106299783Y-88799822D01*
X106299783Y-87796586D01*
X105550533Y-87796586D01*
X105391783Y-87955336D01*
X60685000Y-87955336D01*
X60685000Y-55442619D01*
X62764613Y-55442619D01*
X63104155Y-56264372D01*
X63732321Y-56893636D01*
X64553481Y-57234611D01*
X65442619Y-57235387D01*
X66264372Y-56895845D01*
X66893636Y-56267679D01*
X67234611Y-55446519D01*
X67235387Y-54557381D01*
X66895845Y-53735628D01*
X66267679Y-53106364D01*
X65588121Y-52824187D01*
X69913552Y-52824187D01*
X70131557Y-53351800D01*
X70534877Y-53755824D01*
X70665015Y-53809862D01*
X70537000Y-53862757D01*
X70132976Y-54266077D01*
X69914050Y-54793309D01*
X69913552Y-55364187D01*
X70131557Y-55891800D01*
X70534877Y-56295824D01*
X70665015Y-56349862D01*
X70537000Y-56402757D01*
X70132976Y-56806077D01*
X69914050Y-57333309D01*
X69913552Y-57904187D01*
X70131557Y-58431800D01*
X70534877Y-58835824D01*
X70665015Y-58889862D01*
X70537000Y-58942757D01*
X70132976Y-59346077D01*
X69914050Y-59873309D01*
X69913552Y-60444187D01*
X70131557Y-60971800D01*
X70534877Y-61375824D01*
X70665015Y-61429862D01*
X70537000Y-61482757D01*
X70132976Y-61886077D01*
X69914050Y-62413309D01*
X69913552Y-62984187D01*
X70131557Y-63511800D01*
X70534877Y-63915824D01*
X70665015Y-63969862D01*
X70537000Y-64022757D01*
X70132976Y-64426077D01*
X69914050Y-64953309D01*
X69913552Y-65524187D01*
X70131557Y-66051800D01*
X70534877Y-66455824D01*
X70665015Y-66509862D01*
X70537000Y-66562757D01*
X70132976Y-66966077D01*
X69914050Y-67493309D01*
X69913552Y-68064187D01*
X70131557Y-68591800D01*
X70534877Y-68995824D01*
X70665015Y-69049862D01*
X70537000Y-69102757D01*
X70132976Y-69506077D01*
X69914050Y-70033309D01*
X69913552Y-70604187D01*
X70131557Y-71131800D01*
X70534877Y-71535824D01*
X70665015Y-71589862D01*
X70537000Y-71642757D01*
X70132976Y-72046077D01*
X69914050Y-72573309D01*
X69913552Y-73144187D01*
X70131557Y-73671800D01*
X70534877Y-74075824D01*
X70665015Y-74129862D01*
X70537000Y-74182757D01*
X70132976Y-74586077D01*
X69914050Y-75113309D01*
X69913552Y-75684187D01*
X70131557Y-76211800D01*
X70534877Y-76615824D01*
X70665015Y-76669862D01*
X70537000Y-76722757D01*
X70132976Y-77126077D01*
X69914050Y-77653309D01*
X69913552Y-78224187D01*
X70131557Y-78751800D01*
X70534877Y-79155824D01*
X70665015Y-79209862D01*
X70537000Y-79262757D01*
X70132976Y-79666077D01*
X69914050Y-80193309D01*
X69913552Y-80764187D01*
X70131557Y-81291800D01*
X70534877Y-81695824D01*
X70665015Y-81749862D01*
X70537000Y-81802757D01*
X70132976Y-82206077D01*
X69914050Y-82733309D01*
X69913552Y-83304187D01*
X70131557Y-83831800D01*
X70534877Y-84235824D01*
X70665015Y-84289862D01*
X70537000Y-84342757D01*
X70132976Y-84746077D01*
X69914050Y-85273309D01*
X69913552Y-85844187D01*
X70131557Y-86371800D01*
X70534877Y-86775824D01*
X71062109Y-86994750D01*
X71632987Y-86995248D01*
X72160600Y-86777243D01*
X72370463Y-86567745D01*
X85760661Y-86567745D01*
X85834795Y-86813864D01*
X86372023Y-87006965D01*
X86942254Y-86979778D01*
X87342805Y-86813864D01*
X87377674Y-86698100D01*
X105391783Y-86698100D01*
X105391783Y-86938660D01*
X105434160Y-87040968D01*
X105391783Y-87143276D01*
X105391783Y-87383836D01*
X105550533Y-87542586D01*
X106299783Y-87542586D01*
X106299783Y-86539350D01*
X105550533Y-86539350D01*
X105391783Y-86698100D01*
X87377674Y-86698100D01*
X87416939Y-86567745D01*
X86588800Y-85739605D01*
X85760661Y-86567745D01*
X72370463Y-86567745D01*
X72564624Y-86373923D01*
X72783550Y-85846691D01*
X72783989Y-85343223D01*
X85141835Y-85343223D01*
X85169022Y-85913454D01*
X85334936Y-86314005D01*
X85581055Y-86388139D01*
X86409195Y-85560000D01*
X86768405Y-85560000D01*
X87596545Y-86388139D01*
X87842664Y-86314005D01*
X88035765Y-85776777D01*
X88008578Y-85206546D01*
X87842664Y-84805995D01*
X87596545Y-84731861D01*
X86768405Y-85560000D01*
X86409195Y-85560000D01*
X85581055Y-84731861D01*
X85334936Y-84805995D01*
X85141835Y-85343223D01*
X72783989Y-85343223D01*
X72784048Y-85275813D01*
X72566043Y-84748200D01*
X72162723Y-84344176D01*
X72032585Y-84290138D01*
X72160600Y-84237243D01*
X72564624Y-83833923D01*
X72783550Y-83306691D01*
X72784048Y-82735813D01*
X72566043Y-82208200D01*
X72162723Y-81804176D01*
X72032585Y-81750138D01*
X72160600Y-81697243D01*
X72564624Y-81293923D01*
X72783550Y-80766691D01*
X72784048Y-80195813D01*
X72566043Y-79668200D01*
X72162723Y-79264176D01*
X72032585Y-79210138D01*
X72160600Y-79157243D01*
X72564624Y-78753923D01*
X72783550Y-78226691D01*
X72784048Y-77655813D01*
X72566043Y-77128200D01*
X72162723Y-76724176D01*
X72032585Y-76670138D01*
X72160600Y-76617243D01*
X72564624Y-76213923D01*
X72783550Y-75686691D01*
X72784048Y-75115813D01*
X72566043Y-74588200D01*
X72162723Y-74184176D01*
X72032585Y-74130138D01*
X72160600Y-74077243D01*
X72564624Y-73673923D01*
X72783550Y-73146691D01*
X72784048Y-72575813D01*
X72566043Y-72048200D01*
X72162723Y-71644176D01*
X72032585Y-71590138D01*
X72160600Y-71537243D01*
X72564624Y-71133923D01*
X72783550Y-70606691D01*
X72784048Y-70035813D01*
X72566043Y-69508200D01*
X72162723Y-69104176D01*
X72032585Y-69050138D01*
X72160600Y-68997243D01*
X72564624Y-68593923D01*
X72783550Y-68066691D01*
X72784048Y-67495813D01*
X72566043Y-66968200D01*
X72162723Y-66564176D01*
X72032585Y-66510138D01*
X72160600Y-66457243D01*
X72564624Y-66053923D01*
X72783550Y-65526691D01*
X72784048Y-64955813D01*
X72566043Y-64428200D01*
X72162723Y-64024176D01*
X72032585Y-63970138D01*
X72160600Y-63917243D01*
X72564624Y-63513923D01*
X72783550Y-62986691D01*
X72784048Y-62415813D01*
X72566043Y-61888200D01*
X72162723Y-61484176D01*
X72032585Y-61430138D01*
X72160600Y-61377243D01*
X72564624Y-60973923D01*
X72783550Y-60446691D01*
X72784048Y-59875813D01*
X72566043Y-59348200D01*
X72162723Y-58944176D01*
X72032585Y-58890138D01*
X72160600Y-58837243D01*
X72564624Y-58433923D01*
X72783550Y-57906691D01*
X72784048Y-57335813D01*
X72566043Y-56808200D01*
X72162723Y-56404176D01*
X72032585Y-56350138D01*
X72160600Y-56297243D01*
X72564624Y-55893923D01*
X72783550Y-55366691D01*
X72783552Y-55364187D01*
X85153552Y-55364187D01*
X85371557Y-55891800D01*
X85774877Y-56295824D01*
X85905015Y-56349862D01*
X85777000Y-56402757D01*
X85372976Y-56806077D01*
X85154050Y-57333309D01*
X85153552Y-57904187D01*
X85371557Y-58431800D01*
X85774877Y-58835824D01*
X85905015Y-58889862D01*
X85777000Y-58942757D01*
X85372976Y-59346077D01*
X85154050Y-59873309D01*
X85153552Y-60444187D01*
X85371557Y-60971800D01*
X85774877Y-61375824D01*
X85905015Y-61429862D01*
X85777000Y-61482757D01*
X85372976Y-61886077D01*
X85154050Y-62413309D01*
X85153552Y-62984187D01*
X85371557Y-63511800D01*
X85774877Y-63915824D01*
X85905015Y-63969862D01*
X85777000Y-64022757D01*
X85372976Y-64426077D01*
X85154050Y-64953309D01*
X85153552Y-65524187D01*
X85371557Y-66051800D01*
X85774877Y-66455824D01*
X85905015Y-66509862D01*
X85777000Y-66562757D01*
X85372976Y-66966077D01*
X85154050Y-67493309D01*
X85153552Y-68064187D01*
X85371557Y-68591800D01*
X85774877Y-68995824D01*
X85905015Y-69049862D01*
X85777000Y-69102757D01*
X85372976Y-69506077D01*
X85154050Y-70033309D01*
X85153552Y-70604187D01*
X85371557Y-71131800D01*
X85774877Y-71535824D01*
X85905015Y-71589862D01*
X85777000Y-71642757D01*
X85372976Y-72046077D01*
X85154050Y-72573309D01*
X85153552Y-73144187D01*
X85371557Y-73671800D01*
X85774877Y-74075824D01*
X85905015Y-74129862D01*
X85777000Y-74182757D01*
X85372976Y-74586077D01*
X85154050Y-75113309D01*
X85153552Y-75684187D01*
X85371557Y-76211800D01*
X85774877Y-76615824D01*
X85905015Y-76669862D01*
X85777000Y-76722757D01*
X85372976Y-77126077D01*
X85154050Y-77653309D01*
X85153552Y-78224187D01*
X85371557Y-78751800D01*
X85774877Y-79155824D01*
X85905015Y-79209862D01*
X85777000Y-79262757D01*
X85372976Y-79666077D01*
X85154050Y-80193309D01*
X85153552Y-80764187D01*
X85371557Y-81291800D01*
X85774877Y-81695824D01*
X85905015Y-81749862D01*
X85777000Y-81802757D01*
X85372976Y-82206077D01*
X85154050Y-82733309D01*
X85153552Y-83304187D01*
X85371557Y-83831800D01*
X85774877Y-84235824D01*
X85889568Y-84283448D01*
X85834795Y-84306136D01*
X85760661Y-84552255D01*
X86588800Y-85380395D01*
X87416939Y-84552255D01*
X87342805Y-84306136D01*
X87284546Y-84285195D01*
X87400600Y-84237243D01*
X87804624Y-83833923D01*
X88023550Y-83306691D01*
X88024048Y-82735813D01*
X87806043Y-82208200D01*
X87402723Y-81804176D01*
X87272585Y-81750138D01*
X87400600Y-81697243D01*
X87804624Y-81293923D01*
X87827015Y-81240000D01*
X97713998Y-81240000D01*
X98004837Y-81182148D01*
X98251399Y-81017401D01*
X101155678Y-78113122D01*
X101201165Y-78113162D01*
X101544941Y-77971117D01*
X101808190Y-77708327D01*
X101950836Y-77364799D01*
X101951160Y-76992833D01*
X101866231Y-76787288D01*
X101905000Y-76795000D01*
X103501537Y-76795000D01*
X103507602Y-76801075D01*
X103272599Y-76958099D01*
X96795599Y-83435099D01*
X96630852Y-83681661D01*
X96573000Y-83972500D01*
X96573000Y-85061037D01*
X96540808Y-85093173D01*
X96398162Y-85436701D01*
X96397838Y-85808667D01*
X96539883Y-86152443D01*
X96802673Y-86415692D01*
X97146201Y-86558338D01*
X97518167Y-86558662D01*
X97861943Y-86416617D01*
X98125192Y-86153827D01*
X98236387Y-85886040D01*
X105391783Y-85886040D01*
X105391783Y-86126600D01*
X105550533Y-86285350D01*
X106299783Y-86285350D01*
X106299783Y-85536100D01*
X106553783Y-85536100D01*
X106553783Y-86285350D01*
X106573783Y-86285350D01*
X106573783Y-86539350D01*
X106553783Y-86539350D01*
X106553783Y-87542586D01*
X106573783Y-87542586D01*
X106573783Y-87796586D01*
X106553783Y-87796586D01*
X106553783Y-88799822D01*
X106573783Y-88799822D01*
X106573783Y-89053822D01*
X106553783Y-89053822D01*
X106553783Y-90057058D01*
X106573783Y-90057058D01*
X106573783Y-90311058D01*
X106553783Y-90311058D01*
X106553783Y-91060308D01*
X106712533Y-91219058D01*
X106953092Y-91219058D01*
X107186481Y-91122385D01*
X107228443Y-91080424D01*
X107374893Y-91180489D01*
X107626783Y-91231498D01*
X108426783Y-91231498D01*
X108662100Y-91187220D01*
X108878224Y-91048148D01*
X108910634Y-91000714D01*
X109195246Y-91118896D01*
X109567212Y-91119220D01*
X109910988Y-90977175D01*
X110174237Y-90714385D01*
X110316883Y-90370857D01*
X110317207Y-89998891D01*
X110175162Y-89655115D01*
X110075717Y-89555497D01*
X110174237Y-89457149D01*
X110316883Y-89113621D01*
X110317207Y-88741655D01*
X110175162Y-88397879D01*
X110075717Y-88298261D01*
X110174237Y-88199913D01*
X110316883Y-87856385D01*
X110317207Y-87484419D01*
X110175162Y-87140643D01*
X110075717Y-87041025D01*
X110174237Y-86942677D01*
X110204498Y-86869800D01*
X110930599Y-87595901D01*
X111177161Y-87760648D01*
X111468000Y-87818500D01*
X119131453Y-87818500D01*
X119199606Y-87983443D01*
X119544259Y-88328699D01*
X119201222Y-88671137D01*
X118951784Y-89271852D01*
X118951216Y-89922295D01*
X119199606Y-90523443D01*
X119659137Y-90983778D01*
X120259852Y-91233216D01*
X120910295Y-91233784D01*
X121511443Y-90985394D01*
X121971778Y-90525863D01*
X122221216Y-89925148D01*
X122221784Y-89274705D01*
X121973394Y-88673557D01*
X121628741Y-88328301D01*
X121971778Y-87985863D01*
X122221216Y-87385148D01*
X122221784Y-86734705D01*
X121973394Y-86133557D01*
X121546522Y-85705938D01*
X121559427Y-85671032D01*
X120586500Y-84698105D01*
X119613573Y-85671032D01*
X119626664Y-85706438D01*
X119201222Y-86131137D01*
X119131727Y-86298500D01*
X113257694Y-86298500D01*
X113513778Y-86042863D01*
X113763216Y-85442148D01*
X113763784Y-84791705D01*
X113541593Y-84253961D01*
X118940592Y-84253961D01*
X118964644Y-84903960D01*
X119167113Y-85392764D01*
X119433968Y-85491427D01*
X120406895Y-84518500D01*
X120766105Y-84518500D01*
X121739032Y-85491427D01*
X122005887Y-85392764D01*
X122232408Y-84783039D01*
X122208356Y-84133040D01*
X122005887Y-83644236D01*
X121739032Y-83545573D01*
X120766105Y-84518500D01*
X120406895Y-84518500D01*
X119433968Y-83545573D01*
X119167113Y-83644236D01*
X118940592Y-84253961D01*
X113541593Y-84253961D01*
X113515394Y-84190557D01*
X113170741Y-83845301D01*
X113513778Y-83502863D01*
X113763216Y-82902148D01*
X113763784Y-82251705D01*
X113515394Y-81650557D01*
X113088522Y-81222938D01*
X113101427Y-81188032D01*
X112128500Y-80215105D01*
X111155573Y-81188032D01*
X111168664Y-81223438D01*
X110743222Y-81648137D01*
X110493784Y-82248852D01*
X110493216Y-82899295D01*
X110741606Y-83500443D01*
X111086259Y-83845699D01*
X110743222Y-84188137D01*
X110493784Y-84788852D01*
X110493592Y-85009290D01*
X110443401Y-84959099D01*
X110196839Y-84794352D01*
X109906000Y-84736500D01*
X109395302Y-84736500D01*
X108555122Y-83896320D01*
X108555162Y-83850833D01*
X108413117Y-83507057D01*
X108150327Y-83243808D01*
X107806799Y-83101162D01*
X107434833Y-83100838D01*
X107091057Y-83242883D01*
X106827808Y-83505673D01*
X106685162Y-83849201D01*
X106684838Y-84221167D01*
X106826883Y-84564943D01*
X107089673Y-84828192D01*
X107433201Y-84970838D01*
X107480077Y-84970879D01*
X107874108Y-85364910D01*
X107626783Y-85364910D01*
X107391466Y-85409188D01*
X107227290Y-85514832D01*
X107186481Y-85474023D01*
X106953092Y-85377350D01*
X106712533Y-85377350D01*
X106553783Y-85536100D01*
X106299783Y-85536100D01*
X106141033Y-85377350D01*
X105900474Y-85377350D01*
X105667085Y-85474023D01*
X105488456Y-85652651D01*
X105391783Y-85886040D01*
X98236387Y-85886040D01*
X98267838Y-85810299D01*
X98268162Y-85438333D01*
X98126117Y-85094557D01*
X98093000Y-85061382D01*
X98093000Y-84287302D01*
X102609341Y-79770961D01*
X110482592Y-79770961D01*
X110506644Y-80420960D01*
X110709113Y-80909764D01*
X110975968Y-81008427D01*
X111948895Y-80035500D01*
X112308105Y-80035500D01*
X113281032Y-81008427D01*
X113547887Y-80909764D01*
X113774408Y-80300039D01*
X113750356Y-79650040D01*
X113547887Y-79161236D01*
X113281032Y-79062573D01*
X112308105Y-80035500D01*
X111948895Y-80035500D01*
X110975968Y-79062573D01*
X110709113Y-79161236D01*
X110482592Y-79770961D01*
X102609341Y-79770961D01*
X103497334Y-78882968D01*
X111155573Y-78882968D01*
X112128500Y-79855895D01*
X113101427Y-78882968D01*
X113002764Y-78616113D01*
X112393039Y-78389592D01*
X111743040Y-78413644D01*
X111254236Y-78616113D01*
X111155573Y-78882968D01*
X103497334Y-78882968D01*
X104124802Y-78255500D01*
X118328698Y-78255500D01*
X119020225Y-78947027D01*
X118951784Y-79111852D01*
X118951216Y-79762295D01*
X119199606Y-80363443D01*
X119544259Y-80708699D01*
X119201222Y-81051137D01*
X118951784Y-81651852D01*
X118951216Y-82302295D01*
X119199606Y-82903443D01*
X119626478Y-83331062D01*
X119613573Y-83365968D01*
X120586500Y-84338895D01*
X121559427Y-83365968D01*
X121546336Y-83330562D01*
X121971778Y-82905863D01*
X122221216Y-82305148D01*
X122221784Y-81654705D01*
X121973394Y-81053557D01*
X121628741Y-80708301D01*
X121971778Y-80365863D01*
X122221216Y-79765148D01*
X122221784Y-79114705D01*
X121973394Y-78513557D01*
X121513863Y-78053222D01*
X120913148Y-77803784D01*
X120262705Y-77803216D01*
X120095221Y-77872419D01*
X119180901Y-76958099D01*
X118934339Y-76793352D01*
X118643500Y-76735500D01*
X114126745Y-76735500D01*
X114334716Y-76234648D01*
X114335284Y-75584205D01*
X114086894Y-74983057D01*
X113627363Y-74522722D01*
X113026648Y-74273284D01*
X112376205Y-74272716D01*
X111775057Y-74521106D01*
X111314722Y-74980637D01*
X111065284Y-75581352D01*
X111064716Y-76231795D01*
X111272843Y-76735500D01*
X104685722Y-76735500D01*
X104856192Y-76565327D01*
X104998838Y-76221799D01*
X104999162Y-75849833D01*
X104857117Y-75506057D01*
X104594327Y-75242808D01*
X104498548Y-75203037D01*
X104867151Y-75129717D01*
X105332698Y-74818648D01*
X105430251Y-74672650D01*
X105454838Y-74803317D01*
X105593910Y-75019441D01*
X105806110Y-75164431D01*
X106058000Y-75215440D01*
X107658000Y-75215440D01*
X107893317Y-75171162D01*
X108109441Y-75032090D01*
X108254431Y-74819890D01*
X108284597Y-74670926D01*
X108383302Y-74818648D01*
X108848849Y-75129717D01*
X109398000Y-75238950D01*
X109947151Y-75129717D01*
X110412698Y-74818648D01*
X110723767Y-74353101D01*
X110833000Y-73803950D01*
X110833000Y-72932050D01*
X110723767Y-72382899D01*
X110496926Y-72043407D01*
X113640500Y-72043407D01*
X113640500Y-72101593D01*
X113753539Y-72669878D01*
X114075446Y-73151647D01*
X114557215Y-73473554D01*
X115125500Y-73586593D01*
X115693785Y-73473554D01*
X116175554Y-73151647D01*
X116395500Y-72822474D01*
X116615446Y-73151647D01*
X117097215Y-73473554D01*
X117665500Y-73586593D01*
X118233785Y-73473554D01*
X118715554Y-73151647D01*
X118943202Y-72810947D01*
X119010317Y-72953858D01*
X119438576Y-73344145D01*
X119848610Y-73513976D01*
X120078500Y-73392655D01*
X120078500Y-72199500D01*
X120058500Y-72199500D01*
X120058500Y-71945500D01*
X120078500Y-71945500D01*
X120078500Y-70752345D01*
X120332500Y-70752345D01*
X120332500Y-71945500D01*
X120352500Y-71945500D01*
X120352500Y-72199500D01*
X120332500Y-72199500D01*
X120332500Y-73392655D01*
X120562390Y-73513976D01*
X120972424Y-73344145D01*
X121275437Y-73067999D01*
X121292338Y-73157817D01*
X121431410Y-73373941D01*
X121643610Y-73518931D01*
X121895500Y-73569940D01*
X123595500Y-73569940D01*
X123830817Y-73525662D01*
X124046941Y-73386590D01*
X124191931Y-73174390D01*
X124242940Y-72922500D01*
X124242940Y-71222500D01*
X124198662Y-70987183D01*
X124059590Y-70771059D01*
X123847390Y-70626069D01*
X123595500Y-70575060D01*
X121895500Y-70575060D01*
X121660183Y-70619338D01*
X121444059Y-70758410D01*
X121299069Y-70970610D01*
X121277199Y-71078607D01*
X120972424Y-70800855D01*
X120562390Y-70631024D01*
X120332500Y-70752345D01*
X120078500Y-70752345D01*
X119848610Y-70631024D01*
X119438576Y-70800855D01*
X119010317Y-71191142D01*
X118943202Y-71334053D01*
X118715554Y-70993353D01*
X118233785Y-70671446D01*
X117665500Y-70558407D01*
X117097215Y-70671446D01*
X116615446Y-70993353D01*
X116395500Y-71322526D01*
X116175554Y-70993353D01*
X115693785Y-70671446D01*
X115125500Y-70558407D01*
X114557215Y-70671446D01*
X114075446Y-70993353D01*
X113753539Y-71475122D01*
X113640500Y-72043407D01*
X110496926Y-72043407D01*
X110412698Y-71917352D01*
X109947151Y-71606283D01*
X109398000Y-71497050D01*
X108848849Y-71606283D01*
X108383302Y-71917352D01*
X108285749Y-72063350D01*
X108261162Y-71932683D01*
X108122090Y-71716559D01*
X107909890Y-71571569D01*
X107658000Y-71520560D01*
X106058000Y-71520560D01*
X105822683Y-71564838D01*
X105606559Y-71703910D01*
X105461569Y-71916110D01*
X105431403Y-72065074D01*
X105332698Y-71917352D01*
X104867151Y-71606283D01*
X104318000Y-71497050D01*
X103768849Y-71606283D01*
X103303302Y-71917352D01*
X103205749Y-72063350D01*
X103181162Y-71932683D01*
X103042090Y-71716559D01*
X102829890Y-71571569D01*
X102578000Y-71520560D01*
X100978000Y-71520560D01*
X100742683Y-71564838D01*
X100577156Y-71671352D01*
X98065168Y-69159364D01*
X98407167Y-69159662D01*
X98750943Y-69017617D01*
X99014192Y-68754827D01*
X99156838Y-68411299D01*
X99157162Y-68039333D01*
X99015117Y-67695557D01*
X98982000Y-67662382D01*
X98982000Y-67661431D01*
X99073441Y-67602590D01*
X99218431Y-67390390D01*
X99269440Y-67138500D01*
X99269440Y-66338500D01*
X99225162Y-66103183D01*
X99118241Y-65937023D01*
X99218431Y-65790390D01*
X99269440Y-65538500D01*
X99269440Y-65312050D01*
X100343000Y-65312050D01*
X100343000Y-66183950D01*
X100452233Y-66733101D01*
X100763302Y-67198648D01*
X101228849Y-67509717D01*
X101778000Y-67618950D01*
X102327151Y-67509717D01*
X102792698Y-67198648D01*
X103048000Y-66816562D01*
X103303302Y-67198648D01*
X103768849Y-67509717D01*
X104318000Y-67618950D01*
X104867151Y-67509717D01*
X105332698Y-67198648D01*
X105588000Y-66816562D01*
X105843302Y-67198648D01*
X106308849Y-67509717D01*
X106858000Y-67618950D01*
X107407151Y-67509717D01*
X107872698Y-67198648D01*
X108128000Y-66816562D01*
X108383302Y-67198648D01*
X108848849Y-67509717D01*
X109398000Y-67618950D01*
X109947151Y-67509717D01*
X110412698Y-67198648D01*
X110690426Y-66783000D01*
X111422971Y-66783000D01*
X111772637Y-67133278D01*
X112373352Y-67382716D01*
X113023795Y-67383284D01*
X113624943Y-67134894D01*
X114085278Y-66675363D01*
X114334716Y-66074648D01*
X114335284Y-65424205D01*
X114086894Y-64823057D01*
X113627363Y-64362722D01*
X113026648Y-64113284D01*
X112918443Y-64113190D01*
X113177856Y-63939856D01*
X114463854Y-62653857D01*
X114463857Y-62653855D01*
X114560860Y-62556852D01*
X115055795Y-62557284D01*
X115656943Y-62308894D01*
X116002199Y-61964241D01*
X116344637Y-62307278D01*
X116945352Y-62556716D01*
X117595795Y-62557284D01*
X118196943Y-62308894D01*
X118657278Y-61849363D01*
X118906716Y-61248648D01*
X118907284Y-60598205D01*
X118658894Y-59997057D01*
X118433232Y-59771000D01*
X121119868Y-59771000D01*
X121155278Y-59806410D01*
X120966722Y-59994637D01*
X120717284Y-60595352D01*
X120716716Y-61245795D01*
X120965106Y-61846943D01*
X121424637Y-62307278D01*
X121761650Y-62447218D01*
X121549434Y-62659434D01*
X121303397Y-63027654D01*
X121217000Y-63462000D01*
X121217000Y-67208500D01*
X121303397Y-67642846D01*
X121486652Y-67917106D01*
X121549434Y-68011066D01*
X125805001Y-72266633D01*
X125805001Y-74908001D01*
X125891398Y-75342347D01*
X125999861Y-75504673D01*
X126137435Y-75710567D01*
X126305025Y-75878157D01*
X126304716Y-76231795D01*
X126553106Y-76832943D01*
X127012637Y-77293278D01*
X127613352Y-77542716D01*
X128263795Y-77543284D01*
X128864943Y-77294894D01*
X129325278Y-76835363D01*
X129574716Y-76234648D01*
X129575284Y-75584205D01*
X129326894Y-74983057D01*
X128867363Y-74522722D01*
X128266648Y-74273284D01*
X128075001Y-74273117D01*
X128075001Y-71796501D01*
X127988604Y-71362155D01*
X127742567Y-70993935D01*
X123487000Y-66738368D01*
X123487000Y-66071795D01*
X123764716Y-66071795D01*
X124013106Y-66672943D01*
X124472637Y-67133278D01*
X125073352Y-67382716D01*
X125723795Y-67383284D01*
X126324943Y-67134894D01*
X126670199Y-66790241D01*
X127012637Y-67133278D01*
X127613352Y-67382716D01*
X128263795Y-67383284D01*
X128864943Y-67134894D01*
X129325278Y-66675363D01*
X129574716Y-66074648D01*
X129575284Y-65424205D01*
X129326894Y-64823057D01*
X128867363Y-64362722D01*
X128266648Y-64113284D01*
X127616205Y-64112716D01*
X127015057Y-64361106D01*
X126669801Y-64705759D01*
X126327363Y-64362722D01*
X125726648Y-64113284D01*
X125076205Y-64112716D01*
X124475057Y-64361106D01*
X124014722Y-64820637D01*
X123765284Y-65421352D01*
X123764716Y-66071795D01*
X123487000Y-66071795D01*
X123487000Y-63932132D01*
X124862157Y-62556975D01*
X125215795Y-62557284D01*
X125816943Y-62308894D01*
X126162199Y-61964241D01*
X126504637Y-62307278D01*
X127105352Y-62556716D01*
X127755795Y-62557284D01*
X128356943Y-62308894D01*
X128817278Y-61849363D01*
X129066716Y-61248648D01*
X129067284Y-60598205D01*
X128818894Y-59997057D01*
X128359363Y-59536722D01*
X127758648Y-59287284D01*
X127108205Y-59286716D01*
X126507057Y-59535106D01*
X126161801Y-59879759D01*
X125819363Y-59536722D01*
X125218648Y-59287284D01*
X124568205Y-59286716D01*
X123967057Y-59535106D01*
X123621801Y-59879759D01*
X123487000Y-59744722D01*
X123487000Y-59398000D01*
X123400603Y-58963654D01*
X123154566Y-58595434D01*
X122392566Y-57833434D01*
X122024346Y-57587397D01*
X121590000Y-57501000D01*
X102794000Y-57501000D01*
X102359654Y-57587397D01*
X101991434Y-57833434D01*
X101229434Y-58595434D01*
X100983397Y-58963654D01*
X100897000Y-59398000D01*
X100897000Y-59744796D01*
X100646722Y-59994637D01*
X100397284Y-60595352D01*
X100396716Y-61245795D01*
X100645106Y-61846943D01*
X101104637Y-62307278D01*
X101541577Y-62488711D01*
X101046144Y-62984144D01*
X100821785Y-63319923D01*
X100742999Y-63716000D01*
X100743000Y-63716005D01*
X100743000Y-64327736D01*
X100452233Y-64762899D01*
X100343000Y-65312050D01*
X99269440Y-65312050D01*
X99269440Y-64738500D01*
X99225162Y-64503183D01*
X99086090Y-64287059D01*
X98873890Y-64142069D01*
X98664460Y-64099658D01*
X97121952Y-62557150D01*
X97275795Y-62557284D01*
X97876943Y-62308894D01*
X98337278Y-61849363D01*
X98586716Y-61248648D01*
X98587284Y-60598205D01*
X98338894Y-59997057D01*
X97879363Y-59536722D01*
X97278648Y-59287284D01*
X96628205Y-59286716D01*
X96027057Y-59535106D01*
X95681801Y-59879759D01*
X95339363Y-59536722D01*
X94738648Y-59287284D01*
X94088205Y-59286716D01*
X93487057Y-59535106D01*
X93141801Y-59879759D01*
X92799363Y-59536722D01*
X92198648Y-59287284D01*
X91548205Y-59286716D01*
X90947057Y-59535106D01*
X90486722Y-59994637D01*
X90237284Y-60595352D01*
X90236716Y-61245795D01*
X90485106Y-61846943D01*
X90589645Y-61951665D01*
X90531002Y-61940000D01*
X87827446Y-61940000D01*
X87806043Y-61888200D01*
X87402723Y-61484176D01*
X87272585Y-61430138D01*
X87400600Y-61377243D01*
X87804624Y-60973923D01*
X88023550Y-60446691D01*
X88024048Y-59875813D01*
X87806043Y-59348200D01*
X87402723Y-58944176D01*
X87272585Y-58890138D01*
X87400600Y-58837243D01*
X87804624Y-58433923D01*
X88023550Y-57906691D01*
X88024048Y-57335813D01*
X87806043Y-56808200D01*
X87402723Y-56404176D01*
X87272585Y-56350138D01*
X87400600Y-56297243D01*
X87804624Y-55893923D01*
X87992021Y-55442619D01*
X132764613Y-55442619D01*
X133104155Y-56264372D01*
X133732321Y-56893636D01*
X134553481Y-57234611D01*
X135442619Y-57235387D01*
X136264372Y-56895845D01*
X136893636Y-56267679D01*
X137234611Y-55446519D01*
X137235387Y-54557381D01*
X136895845Y-53735628D01*
X136267679Y-53106364D01*
X135446519Y-52765389D01*
X134557381Y-52764613D01*
X133735628Y-53104155D01*
X133106364Y-53732321D01*
X132765389Y-54553481D01*
X132764613Y-55442619D01*
X87992021Y-55442619D01*
X88023550Y-55366691D01*
X88024048Y-54795813D01*
X87806043Y-54268200D01*
X87402723Y-53864176D01*
X87288032Y-53816552D01*
X87342805Y-53793864D01*
X87416939Y-53547745D01*
X86588800Y-52719605D01*
X85760661Y-53547745D01*
X85834795Y-53793864D01*
X85893054Y-53814805D01*
X85777000Y-53862757D01*
X85372976Y-54266077D01*
X85154050Y-54793309D01*
X85153552Y-55364187D01*
X72783552Y-55364187D01*
X72784048Y-54795813D01*
X72566043Y-54268200D01*
X72162723Y-53864176D01*
X72032585Y-53810138D01*
X72160600Y-53757243D01*
X72564624Y-53353923D01*
X72783550Y-52826691D01*
X72783989Y-52323223D01*
X85141835Y-52323223D01*
X85169022Y-52893454D01*
X85334936Y-53294005D01*
X85581055Y-53368139D01*
X86409195Y-52540000D01*
X86768405Y-52540000D01*
X87596545Y-53368139D01*
X87842664Y-53294005D01*
X88035765Y-52756777D01*
X88008578Y-52186546D01*
X87842664Y-51785995D01*
X87596545Y-51711861D01*
X86768405Y-52540000D01*
X86409195Y-52540000D01*
X85581055Y-51711861D01*
X85334936Y-51785995D01*
X85141835Y-52323223D01*
X72783989Y-52323223D01*
X72784048Y-52255813D01*
X72566043Y-51728200D01*
X72370440Y-51532255D01*
X85760661Y-51532255D01*
X86588800Y-52360395D01*
X87416939Y-51532255D01*
X87342805Y-51286136D01*
X86805577Y-51093035D01*
X86235346Y-51120222D01*
X85834795Y-51286136D01*
X85760661Y-51532255D01*
X72370440Y-51532255D01*
X72162723Y-51324176D01*
X71635491Y-51105250D01*
X71064613Y-51104752D01*
X70537000Y-51322757D01*
X70132976Y-51726077D01*
X69914050Y-52253309D01*
X69913552Y-52824187D01*
X65588121Y-52824187D01*
X65446519Y-52765389D01*
X64557381Y-52764613D01*
X63735628Y-53104155D01*
X63106364Y-53732321D01*
X62765389Y-54553481D01*
X62764613Y-55442619D01*
X60685000Y-55442619D01*
X60685000Y-50685000D01*
X139315000Y-50685000D01*
X139315000Y-109315000D01*
X139315000Y-109315000D01*
G37*
X139315000Y-109315000D02*
X60685000Y-109315000D01*
X60685000Y-105442619D01*
X62764613Y-105442619D01*
X63104155Y-106264372D01*
X63732321Y-106893636D01*
X64553481Y-107234611D01*
X65442619Y-107235387D01*
X66264372Y-106895845D01*
X66893636Y-106267679D01*
X67234611Y-105446519D01*
X67234614Y-105442619D01*
X132764613Y-105442619D01*
X133104155Y-106264372D01*
X133732321Y-106893636D01*
X134553481Y-107234611D01*
X135442619Y-107235387D01*
X136264372Y-106895845D01*
X136893636Y-106267679D01*
X137234611Y-105446519D01*
X137235387Y-104557381D01*
X136895845Y-103735628D01*
X136267679Y-103106364D01*
X135446519Y-102765389D01*
X134557381Y-102764613D01*
X133735628Y-103104155D01*
X133106364Y-103732321D01*
X132765389Y-104553481D01*
X132764613Y-105442619D01*
X67234614Y-105442619D01*
X67235387Y-104557381D01*
X66895845Y-103735628D01*
X66687485Y-103526903D01*
X69426682Y-103526903D01*
X69705455Y-104201586D01*
X70221199Y-104718230D01*
X70895395Y-104998181D01*
X71625403Y-104998818D01*
X72300086Y-104720045D01*
X72816730Y-104204301D01*
X73096681Y-103530105D01*
X73096683Y-103526903D01*
X84226682Y-103526903D01*
X84505455Y-104201586D01*
X85021199Y-104718230D01*
X85695395Y-104998181D01*
X86425403Y-104998818D01*
X87100086Y-104720045D01*
X87616730Y-104204301D01*
X87896681Y-103530105D01*
X87897318Y-102800097D01*
X87618545Y-102125414D01*
X87102801Y-101608770D01*
X86536708Y-101373707D01*
X87827665Y-101373707D01*
X88121630Y-102085158D01*
X88665479Y-102629957D01*
X89376416Y-102925163D01*
X90146207Y-102925835D01*
X90857658Y-102631870D01*
X91402457Y-102088021D01*
X91662060Y-101462825D01*
X94277587Y-101462825D01*
X94639916Y-102339729D01*
X95310242Y-103011226D01*
X96186513Y-103375085D01*
X97135325Y-103375913D01*
X98012229Y-103013584D01*
X98683726Y-102343258D01*
X99047585Y-101466987D01*
X99047588Y-101462825D01*
X118477587Y-101462825D01*
X118839916Y-102339729D01*
X119510242Y-103011226D01*
X120386513Y-103375085D01*
X121335325Y-103375913D01*
X122212229Y-103013584D01*
X122866995Y-102359959D01*
X126573146Y-102359959D01*
X126708504Y-102657955D01*
X127426880Y-102934566D01*
X128196427Y-102915210D01*
X128817496Y-102657955D01*
X128952854Y-102359959D01*
X127763000Y-101170105D01*
X126573146Y-102359959D01*
X122866995Y-102359959D01*
X122883726Y-102343258D01*
X123247585Y-101466987D01*
X123248294Y-100654380D01*
X125818934Y-100654380D01*
X125838290Y-101423927D01*
X126095545Y-102044996D01*
X126393541Y-102180354D01*
X127583395Y-100990500D01*
X127942605Y-100990500D01*
X129132459Y-102180354D01*
X129430455Y-102044996D01*
X129707066Y-101326620D01*
X129687710Y-100557073D01*
X129430455Y-99936004D01*
X129132459Y-99800646D01*
X127942605Y-100990500D01*
X127583395Y-100990500D01*
X126393541Y-99800646D01*
X126095545Y-99936004D01*
X125818934Y-100654380D01*
X123248294Y-100654380D01*
X123248413Y-100518175D01*
X122886084Y-99641271D01*
X122865890Y-99621041D01*
X126573146Y-99621041D01*
X127763000Y-100810895D01*
X128952854Y-99621041D01*
X128817496Y-99323045D01*
X128099120Y-99046434D01*
X127329573Y-99065790D01*
X126708504Y-99323045D01*
X126573146Y-99621041D01*
X122865890Y-99621041D01*
X122215758Y-98969774D01*
X121339487Y-98605915D01*
X120390675Y-98605087D01*
X119513771Y-98967416D01*
X118842274Y-99637742D01*
X118478415Y-100514013D01*
X118477587Y-101462825D01*
X99047588Y-101462825D01*
X99048413Y-100518175D01*
X98686084Y-99641271D01*
X98015758Y-98969774D01*
X97139487Y-98605915D01*
X96190675Y-98605087D01*
X95313771Y-98967416D01*
X94642274Y-99637742D01*
X94278415Y-100514013D01*
X94277587Y-101462825D01*
X91662060Y-101462825D01*
X91697663Y-101377084D01*
X91698335Y-100607293D01*
X91404370Y-99895842D01*
X90860521Y-99351043D01*
X90149584Y-99055837D01*
X89379793Y-99055165D01*
X88668342Y-99349130D01*
X88123543Y-99892979D01*
X87828337Y-100603916D01*
X87827665Y-101373707D01*
X86536708Y-101373707D01*
X86428605Y-101328819D01*
X85698597Y-101328182D01*
X85023914Y-101606955D01*
X84507270Y-102122699D01*
X84227319Y-102796895D01*
X84226682Y-103526903D01*
X73096683Y-103526903D01*
X73097318Y-102800097D01*
X72818545Y-102125414D01*
X72302801Y-101608770D01*
X71628605Y-101328819D01*
X70898597Y-101328182D01*
X70223914Y-101606955D01*
X69707270Y-102122699D01*
X69427319Y-102796895D01*
X69426682Y-103526903D01*
X66687485Y-103526903D01*
X66267679Y-103106364D01*
X65446519Y-102765389D01*
X64557381Y-102764613D01*
X63735628Y-103104155D01*
X63106364Y-103732321D01*
X62765389Y-104553481D01*
X62764613Y-105442619D01*
X60685000Y-105442619D01*
X60685000Y-99548368D01*
X69491737Y-99548368D01*
X69602641Y-99825599D01*
X70248593Y-100068823D01*
X70938453Y-100046336D01*
X71471359Y-99825599D01*
X71582263Y-99548368D01*
X70537000Y-98503105D01*
X69491737Y-99548368D01*
X60685000Y-99548368D01*
X60685000Y-98035093D01*
X68791677Y-98035093D01*
X68814164Y-98724953D01*
X69034901Y-99257859D01*
X69312132Y-99368763D01*
X70357395Y-98323500D01*
X70716605Y-98323500D01*
X71761868Y-99368763D01*
X72039099Y-99257859D01*
X72282323Y-98611907D01*
X72259836Y-97922047D01*
X72081981Y-97492667D01*
X73283838Y-97492667D01*
X73425883Y-97836443D01*
X73688673Y-98099692D01*
X74032201Y-98242338D01*
X74404167Y-98242662D01*
X74727187Y-98109193D01*
X74726760Y-98597785D01*
X74937169Y-99107015D01*
X75308195Y-99478688D01*
X74817715Y-99478260D01*
X74308485Y-99688669D01*
X73918539Y-100077936D01*
X73707241Y-100586798D01*
X73706760Y-101137785D01*
X73917169Y-101647015D01*
X74306436Y-102036961D01*
X74815298Y-102248259D01*
X75366285Y-102248740D01*
X75875515Y-102038331D01*
X76112071Y-101802187D01*
X76346436Y-102036961D01*
X76855298Y-102248259D01*
X77406285Y-102248740D01*
X77915515Y-102038331D01*
X78119183Y-101835017D01*
X78380088Y-101835017D01*
X78448077Y-102075960D01*
X78967171Y-102260701D01*
X79517448Y-102232730D01*
X79895923Y-102075960D01*
X79963912Y-101835017D01*
X79172000Y-101043105D01*
X78380088Y-101835017D01*
X78119183Y-101835017D01*
X78305461Y-101649064D01*
X78375497Y-101480398D01*
X78992395Y-100863500D01*
X78375801Y-100246906D01*
X78306831Y-100079985D01*
X77948124Y-99720653D01*
X78435423Y-99695883D01*
X78380088Y-99891983D01*
X79172000Y-100683895D01*
X79963912Y-99891983D01*
X79911640Y-99706740D01*
X79915298Y-99708259D01*
X80408430Y-99708689D01*
X80038539Y-100077936D01*
X79968503Y-100246602D01*
X79351605Y-100863500D01*
X79968199Y-101480094D01*
X80037169Y-101647015D01*
X80426436Y-102036961D01*
X80935298Y-102248259D01*
X81486285Y-102248740D01*
X81995515Y-102038331D01*
X82385461Y-101649064D01*
X82596759Y-101140202D01*
X82597240Y-100589215D01*
X82386831Y-100079985D01*
X82015805Y-99708312D01*
X82506285Y-99708740D01*
X82894415Y-99548368D01*
X85741737Y-99548368D01*
X85852641Y-99825599D01*
X86498593Y-100068823D01*
X87188453Y-100046336D01*
X87721359Y-99825599D01*
X87832263Y-99548368D01*
X86787000Y-98503105D01*
X85741737Y-99548368D01*
X82894415Y-99548368D01*
X83015515Y-99498331D01*
X83405461Y-99109064D01*
X83616759Y-98600202D01*
X83617240Y-98049215D01*
X83611405Y-98035093D01*
X85041677Y-98035093D01*
X85064164Y-98724953D01*
X85284901Y-99257859D01*
X85562132Y-99368763D01*
X86607395Y-98323500D01*
X86966605Y-98323500D01*
X88011868Y-99368763D01*
X88289099Y-99257859D01*
X88532323Y-98611907D01*
X88509836Y-97922047D01*
X88289099Y-97389141D01*
X88011868Y-97278237D01*
X86966605Y-98323500D01*
X86607395Y-98323500D01*
X85562132Y-97278237D01*
X85284901Y-97389141D01*
X85041677Y-98035093D01*
X83611405Y-98035093D01*
X83406831Y-97539985D01*
X83017564Y-97150039D01*
X82893763Y-97098632D01*
X85741737Y-97098632D01*
X86787000Y-98143895D01*
X87832263Y-97098632D01*
X87721359Y-96821401D01*
X87075407Y-96578177D01*
X86385547Y-96600664D01*
X85852641Y-96821401D01*
X85741737Y-97098632D01*
X82893763Y-97098632D01*
X82508702Y-96938741D01*
X81957715Y-96938260D01*
X81448485Y-97148669D01*
X81211929Y-97384813D01*
X80977564Y-97150039D01*
X80468702Y-96938741D01*
X79917715Y-96938260D01*
X79408485Y-97148669D01*
X79018539Y-97537936D01*
X78948503Y-97706602D01*
X78331605Y-98323500D01*
X78948199Y-98940094D01*
X79017169Y-99107015D01*
X79375876Y-99466347D01*
X78888577Y-99491117D01*
X78943912Y-99295017D01*
X78152000Y-98503105D01*
X77360088Y-99295017D01*
X77412360Y-99480260D01*
X77408702Y-99478741D01*
X76915570Y-99478311D01*
X77285461Y-99109064D01*
X77355497Y-98940398D01*
X77972395Y-98323500D01*
X77355801Y-97706906D01*
X77286831Y-97539985D01*
X77099157Y-97351983D01*
X77360088Y-97351983D01*
X78152000Y-98143895D01*
X78943912Y-97351983D01*
X78875923Y-97111040D01*
X78356829Y-96926299D01*
X77806552Y-96954270D01*
X77428077Y-97111040D01*
X77360088Y-97351983D01*
X77099157Y-97351983D01*
X76897564Y-97150039D01*
X76388702Y-96938741D01*
X75837715Y-96938260D01*
X75812132Y-96948830D01*
X75633401Y-96770099D01*
X75386839Y-96605352D01*
X75096000Y-96547500D01*
X74781463Y-96547500D01*
X74749327Y-96515308D01*
X74405799Y-96372662D01*
X74033833Y-96372338D01*
X73690057Y-96514383D01*
X73426808Y-96777173D01*
X73284162Y-97120701D01*
X73283838Y-97492667D01*
X72081981Y-97492667D01*
X72039099Y-97389141D01*
X71761868Y-97278237D01*
X70716605Y-98323500D01*
X70357395Y-98323500D01*
X69312132Y-97278237D01*
X69034901Y-97389141D01*
X68791677Y-98035093D01*
X60685000Y-98035093D01*
X60685000Y-97098632D01*
X69491737Y-97098632D01*
X70537000Y-98143895D01*
X71582263Y-97098632D01*
X71471359Y-96821401D01*
X70825407Y-96578177D01*
X70135547Y-96600664D01*
X69602641Y-96821401D01*
X69491737Y-97098632D01*
X60685000Y-97098632D01*
X60685000Y-93094491D01*
X88227735Y-93094491D01*
X88460932Y-93658871D01*
X88892357Y-94091051D01*
X89456330Y-94325233D01*
X90066991Y-94325765D01*
X90631371Y-94092568D01*
X91063551Y-93661143D01*
X91297733Y-93097170D01*
X91298265Y-92486509D01*
X91065068Y-91922129D01*
X90855112Y-91711805D01*
X110560674Y-91711805D01*
X110847043Y-92404872D01*
X111376839Y-92935593D01*
X112069405Y-93223172D01*
X112819305Y-93223826D01*
X113512372Y-92937457D01*
X114043093Y-92407661D01*
X114330672Y-91715095D01*
X114331326Y-90965195D01*
X114044957Y-90272128D01*
X113515161Y-89741407D01*
X112822595Y-89453828D01*
X112072695Y-89453174D01*
X111379628Y-89739543D01*
X110848907Y-90269339D01*
X110561328Y-90961905D01*
X110560674Y-91711805D01*
X90855112Y-91711805D01*
X90633643Y-91489949D01*
X90069670Y-91255767D01*
X89459009Y-91255235D01*
X88894629Y-91488432D01*
X88462449Y-91919857D01*
X88228267Y-92483830D01*
X88227735Y-93094491D01*
X60685000Y-93094491D01*
X60685000Y-90469808D01*
X105391783Y-90469808D01*
X105391783Y-90710368D01*
X105488456Y-90943757D01*
X105667085Y-91122385D01*
X105900474Y-91219058D01*
X106141033Y-91219058D01*
X106299783Y-91060308D01*
X106299783Y-90311058D01*
X105550533Y-90311058D01*
X105391783Y-90469808D01*
X60685000Y-90469808D01*
X60685000Y-89212572D01*
X105391783Y-89212572D01*
X105391783Y-89453132D01*
X105434160Y-89555440D01*
X105391783Y-89657748D01*
X105391783Y-89898308D01*
X105550533Y-90057058D01*
X106299783Y-90057058D01*
X106299783Y-89053822D01*
X105550533Y-89053822D01*
X105391783Y-89212572D01*
X60685000Y-89212572D01*
X60685000Y-87955336D01*
X105391783Y-87955336D01*
X105391783Y-88195896D01*
X105434160Y-88298204D01*
X105391783Y-88400512D01*
X105391783Y-88641072D01*
X105550533Y-88799822D01*
X106299783Y-88799822D01*
X106299783Y-87796586D01*
X105550533Y-87796586D01*
X105391783Y-87955336D01*
X60685000Y-87955336D01*
X60685000Y-55442619D01*
X62764613Y-55442619D01*
X63104155Y-56264372D01*
X63732321Y-56893636D01*
X64553481Y-57234611D01*
X65442619Y-57235387D01*
X66264372Y-56895845D01*
X66893636Y-56267679D01*
X67234611Y-55446519D01*
X67235387Y-54557381D01*
X66895845Y-53735628D01*
X66267679Y-53106364D01*
X65588121Y-52824187D01*
X69913552Y-52824187D01*
X70131557Y-53351800D01*
X70534877Y-53755824D01*
X70665015Y-53809862D01*
X70537000Y-53862757D01*
X70132976Y-54266077D01*
X69914050Y-54793309D01*
X69913552Y-55364187D01*
X70131557Y-55891800D01*
X70534877Y-56295824D01*
X70665015Y-56349862D01*
X70537000Y-56402757D01*
X70132976Y-56806077D01*
X69914050Y-57333309D01*
X69913552Y-57904187D01*
X70131557Y-58431800D01*
X70534877Y-58835824D01*
X70665015Y-58889862D01*
X70537000Y-58942757D01*
X70132976Y-59346077D01*
X69914050Y-59873309D01*
X69913552Y-60444187D01*
X70131557Y-60971800D01*
X70534877Y-61375824D01*
X70665015Y-61429862D01*
X70537000Y-61482757D01*
X70132976Y-61886077D01*
X69914050Y-62413309D01*
X69913552Y-62984187D01*
X70131557Y-63511800D01*
X70534877Y-63915824D01*
X70665015Y-63969862D01*
X70537000Y-64022757D01*
X70132976Y-64426077D01*
X69914050Y-64953309D01*
X69913552Y-65524187D01*
X70131557Y-66051800D01*
X70534877Y-66455824D01*
X70665015Y-66509862D01*
X70537000Y-66562757D01*
X70132976Y-66966077D01*
X69914050Y-67493309D01*
X69913552Y-68064187D01*
X70131557Y-68591800D01*
X70534877Y-68995824D01*
X70665015Y-69049862D01*
X70537000Y-69102757D01*
X70132976Y-69506077D01*
X69914050Y-70033309D01*
X69913552Y-70604187D01*
X70131557Y-71131800D01*
X70534877Y-71535824D01*
X70665015Y-71589862D01*
X70537000Y-71642757D01*
X70132976Y-72046077D01*
X69914050Y-72573309D01*
X69913552Y-73144187D01*
X70131557Y-73671800D01*
X70534877Y-74075824D01*
X70665015Y-74129862D01*
X70537000Y-74182757D01*
X70132976Y-74586077D01*
X69914050Y-75113309D01*
X69913552Y-75684187D01*
X70131557Y-76211800D01*
X70534877Y-76615824D01*
X70665015Y-76669862D01*
X70537000Y-76722757D01*
X70132976Y-77126077D01*
X69914050Y-77653309D01*
X69913552Y-78224187D01*
X70131557Y-78751800D01*
X70534877Y-79155824D01*
X70665015Y-79209862D01*
X70537000Y-79262757D01*
X70132976Y-79666077D01*
X69914050Y-80193309D01*
X69913552Y-80764187D01*
X70131557Y-81291800D01*
X70534877Y-81695824D01*
X70665015Y-81749862D01*
X70537000Y-81802757D01*
X70132976Y-82206077D01*
X69914050Y-82733309D01*
X69913552Y-83304187D01*
X70131557Y-83831800D01*
X70534877Y-84235824D01*
X70665015Y-84289862D01*
X70537000Y-84342757D01*
X70132976Y-84746077D01*
X69914050Y-85273309D01*
X69913552Y-85844187D01*
X70131557Y-86371800D01*
X70534877Y-86775824D01*
X71062109Y-86994750D01*
X71632987Y-86995248D01*
X72160600Y-86777243D01*
X72370463Y-86567745D01*
X85760661Y-86567745D01*
X85834795Y-86813864D01*
X86372023Y-87006965D01*
X86942254Y-86979778D01*
X87342805Y-86813864D01*
X87377674Y-86698100D01*
X105391783Y-86698100D01*
X105391783Y-86938660D01*
X105434160Y-87040968D01*
X105391783Y-87143276D01*
X105391783Y-87383836D01*
X105550533Y-87542586D01*
X106299783Y-87542586D01*
X106299783Y-86539350D01*
X105550533Y-86539350D01*
X105391783Y-86698100D01*
X87377674Y-86698100D01*
X87416939Y-86567745D01*
X86588800Y-85739605D01*
X85760661Y-86567745D01*
X72370463Y-86567745D01*
X72564624Y-86373923D01*
X72783550Y-85846691D01*
X72783989Y-85343223D01*
X85141835Y-85343223D01*
X85169022Y-85913454D01*
X85334936Y-86314005D01*
X85581055Y-86388139D01*
X86409195Y-85560000D01*
X86768405Y-85560000D01*
X87596545Y-86388139D01*
X87842664Y-86314005D01*
X88035765Y-85776777D01*
X88008578Y-85206546D01*
X87842664Y-84805995D01*
X87596545Y-84731861D01*
X86768405Y-85560000D01*
X86409195Y-85560000D01*
X85581055Y-84731861D01*
X85334936Y-84805995D01*
X85141835Y-85343223D01*
X72783989Y-85343223D01*
X72784048Y-85275813D01*
X72566043Y-84748200D01*
X72162723Y-84344176D01*
X72032585Y-84290138D01*
X72160600Y-84237243D01*
X72564624Y-83833923D01*
X72783550Y-83306691D01*
X72784048Y-82735813D01*
X72566043Y-82208200D01*
X72162723Y-81804176D01*
X72032585Y-81750138D01*
X72160600Y-81697243D01*
X72564624Y-81293923D01*
X72783550Y-80766691D01*
X72784048Y-80195813D01*
X72566043Y-79668200D01*
X72162723Y-79264176D01*
X72032585Y-79210138D01*
X72160600Y-79157243D01*
X72564624Y-78753923D01*
X72783550Y-78226691D01*
X72784048Y-77655813D01*
X72566043Y-77128200D01*
X72162723Y-76724176D01*
X72032585Y-76670138D01*
X72160600Y-76617243D01*
X72564624Y-76213923D01*
X72783550Y-75686691D01*
X72784048Y-75115813D01*
X72566043Y-74588200D01*
X72162723Y-74184176D01*
X72032585Y-74130138D01*
X72160600Y-74077243D01*
X72564624Y-73673923D01*
X72783550Y-73146691D01*
X72784048Y-72575813D01*
X72566043Y-72048200D01*
X72162723Y-71644176D01*
X72032585Y-71590138D01*
X72160600Y-71537243D01*
X72564624Y-71133923D01*
X72783550Y-70606691D01*
X72784048Y-70035813D01*
X72566043Y-69508200D01*
X72162723Y-69104176D01*
X72032585Y-69050138D01*
X72160600Y-68997243D01*
X72564624Y-68593923D01*
X72783550Y-68066691D01*
X72784048Y-67495813D01*
X72566043Y-66968200D01*
X72162723Y-66564176D01*
X72032585Y-66510138D01*
X72160600Y-66457243D01*
X72564624Y-66053923D01*
X72783550Y-65526691D01*
X72784048Y-64955813D01*
X72566043Y-64428200D01*
X72162723Y-64024176D01*
X72032585Y-63970138D01*
X72160600Y-63917243D01*
X72564624Y-63513923D01*
X72783550Y-62986691D01*
X72784048Y-62415813D01*
X72566043Y-61888200D01*
X72162723Y-61484176D01*
X72032585Y-61430138D01*
X72160600Y-61377243D01*
X72564624Y-60973923D01*
X72783550Y-60446691D01*
X72784048Y-59875813D01*
X72566043Y-59348200D01*
X72162723Y-58944176D01*
X72032585Y-58890138D01*
X72160600Y-58837243D01*
X72564624Y-58433923D01*
X72783550Y-57906691D01*
X72784048Y-57335813D01*
X72566043Y-56808200D01*
X72162723Y-56404176D01*
X72032585Y-56350138D01*
X72160600Y-56297243D01*
X72564624Y-55893923D01*
X72783550Y-55366691D01*
X72783552Y-55364187D01*
X85153552Y-55364187D01*
X85371557Y-55891800D01*
X85774877Y-56295824D01*
X85905015Y-56349862D01*
X85777000Y-56402757D01*
X85372976Y-56806077D01*
X85154050Y-57333309D01*
X85153552Y-57904187D01*
X85371557Y-58431800D01*
X85774877Y-58835824D01*
X85905015Y-58889862D01*
X85777000Y-58942757D01*
X85372976Y-59346077D01*
X85154050Y-59873309D01*
X85153552Y-60444187D01*
X85371557Y-60971800D01*
X85774877Y-61375824D01*
X85905015Y-61429862D01*
X85777000Y-61482757D01*
X85372976Y-61886077D01*
X85154050Y-62413309D01*
X85153552Y-62984187D01*
X85371557Y-63511800D01*
X85774877Y-63915824D01*
X85905015Y-63969862D01*
X85777000Y-64022757D01*
X85372976Y-64426077D01*
X85154050Y-64953309D01*
X85153552Y-65524187D01*
X85371557Y-66051800D01*
X85774877Y-66455824D01*
X85905015Y-66509862D01*
X85777000Y-66562757D01*
X85372976Y-66966077D01*
X85154050Y-67493309D01*
X85153552Y-68064187D01*
X85371557Y-68591800D01*
X85774877Y-68995824D01*
X85905015Y-69049862D01*
X85777000Y-69102757D01*
X85372976Y-69506077D01*
X85154050Y-70033309D01*
X85153552Y-70604187D01*
X85371557Y-71131800D01*
X85774877Y-71535824D01*
X85905015Y-71589862D01*
X85777000Y-71642757D01*
X85372976Y-72046077D01*
X85154050Y-72573309D01*
X85153552Y-73144187D01*
X85371557Y-73671800D01*
X85774877Y-74075824D01*
X85905015Y-74129862D01*
X85777000Y-74182757D01*
X85372976Y-74586077D01*
X85154050Y-75113309D01*
X85153552Y-75684187D01*
X85371557Y-76211800D01*
X85774877Y-76615824D01*
X85905015Y-76669862D01*
X85777000Y-76722757D01*
X85372976Y-77126077D01*
X85154050Y-77653309D01*
X85153552Y-78224187D01*
X85371557Y-78751800D01*
X85774877Y-79155824D01*
X85905015Y-79209862D01*
X85777000Y-79262757D01*
X85372976Y-79666077D01*
X85154050Y-80193309D01*
X85153552Y-80764187D01*
X85371557Y-81291800D01*
X85774877Y-81695824D01*
X85905015Y-81749862D01*
X85777000Y-81802757D01*
X85372976Y-82206077D01*
X85154050Y-82733309D01*
X85153552Y-83304187D01*
X85371557Y-83831800D01*
X85774877Y-84235824D01*
X85889568Y-84283448D01*
X85834795Y-84306136D01*
X85760661Y-84552255D01*
X86588800Y-85380395D01*
X87416939Y-84552255D01*
X87342805Y-84306136D01*
X87284546Y-84285195D01*
X87400600Y-84237243D01*
X87804624Y-83833923D01*
X88023550Y-83306691D01*
X88024048Y-82735813D01*
X87806043Y-82208200D01*
X87402723Y-81804176D01*
X87272585Y-81750138D01*
X87400600Y-81697243D01*
X87804624Y-81293923D01*
X87827015Y-81240000D01*
X97713998Y-81240000D01*
X98004837Y-81182148D01*
X98251399Y-81017401D01*
X101155678Y-78113122D01*
X101201165Y-78113162D01*
X101544941Y-77971117D01*
X101808190Y-77708327D01*
X101950836Y-77364799D01*
X101951160Y-76992833D01*
X101866231Y-76787288D01*
X101905000Y-76795000D01*
X103501537Y-76795000D01*
X103507602Y-76801075D01*
X103272599Y-76958099D01*
X96795599Y-83435099D01*
X96630852Y-83681661D01*
X96573000Y-83972500D01*
X96573000Y-85061037D01*
X96540808Y-85093173D01*
X96398162Y-85436701D01*
X96397838Y-85808667D01*
X96539883Y-86152443D01*
X96802673Y-86415692D01*
X97146201Y-86558338D01*
X97518167Y-86558662D01*
X97861943Y-86416617D01*
X98125192Y-86153827D01*
X98236387Y-85886040D01*
X105391783Y-85886040D01*
X105391783Y-86126600D01*
X105550533Y-86285350D01*
X106299783Y-86285350D01*
X106299783Y-85536100D01*
X106553783Y-85536100D01*
X106553783Y-86285350D01*
X106573783Y-86285350D01*
X106573783Y-86539350D01*
X106553783Y-86539350D01*
X106553783Y-87542586D01*
X106573783Y-87542586D01*
X106573783Y-87796586D01*
X106553783Y-87796586D01*
X106553783Y-88799822D01*
X106573783Y-88799822D01*
X106573783Y-89053822D01*
X106553783Y-89053822D01*
X106553783Y-90057058D01*
X106573783Y-90057058D01*
X106573783Y-90311058D01*
X106553783Y-90311058D01*
X106553783Y-91060308D01*
X106712533Y-91219058D01*
X106953092Y-91219058D01*
X107186481Y-91122385D01*
X107228443Y-91080424D01*
X107374893Y-91180489D01*
X107626783Y-91231498D01*
X108426783Y-91231498D01*
X108662100Y-91187220D01*
X108878224Y-91048148D01*
X108910634Y-91000714D01*
X109195246Y-91118896D01*
X109567212Y-91119220D01*
X109910988Y-90977175D01*
X110174237Y-90714385D01*
X110316883Y-90370857D01*
X110317207Y-89998891D01*
X110175162Y-89655115D01*
X110075717Y-89555497D01*
X110174237Y-89457149D01*
X110316883Y-89113621D01*
X110317207Y-88741655D01*
X110175162Y-88397879D01*
X110075717Y-88298261D01*
X110174237Y-88199913D01*
X110316883Y-87856385D01*
X110317207Y-87484419D01*
X110175162Y-87140643D01*
X110075717Y-87041025D01*
X110174237Y-86942677D01*
X110204498Y-86869800D01*
X110930599Y-87595901D01*
X111177161Y-87760648D01*
X111468000Y-87818500D01*
X119131453Y-87818500D01*
X119199606Y-87983443D01*
X119544259Y-88328699D01*
X119201222Y-88671137D01*
X118951784Y-89271852D01*
X118951216Y-89922295D01*
X119199606Y-90523443D01*
X119659137Y-90983778D01*
X120259852Y-91233216D01*
X120910295Y-91233784D01*
X121511443Y-90985394D01*
X121971778Y-90525863D01*
X122221216Y-89925148D01*
X122221784Y-89274705D01*
X121973394Y-88673557D01*
X121628741Y-88328301D01*
X121971778Y-87985863D01*
X122221216Y-87385148D01*
X122221784Y-86734705D01*
X121973394Y-86133557D01*
X121546522Y-85705938D01*
X121559427Y-85671032D01*
X120586500Y-84698105D01*
X119613573Y-85671032D01*
X119626664Y-85706438D01*
X119201222Y-86131137D01*
X119131727Y-86298500D01*
X113257694Y-86298500D01*
X113513778Y-86042863D01*
X113763216Y-85442148D01*
X113763784Y-84791705D01*
X113541593Y-84253961D01*
X118940592Y-84253961D01*
X118964644Y-84903960D01*
X119167113Y-85392764D01*
X119433968Y-85491427D01*
X120406895Y-84518500D01*
X120766105Y-84518500D01*
X121739032Y-85491427D01*
X122005887Y-85392764D01*
X122232408Y-84783039D01*
X122208356Y-84133040D01*
X122005887Y-83644236D01*
X121739032Y-83545573D01*
X120766105Y-84518500D01*
X120406895Y-84518500D01*
X119433968Y-83545573D01*
X119167113Y-83644236D01*
X118940592Y-84253961D01*
X113541593Y-84253961D01*
X113515394Y-84190557D01*
X113170741Y-83845301D01*
X113513778Y-83502863D01*
X113763216Y-82902148D01*
X113763784Y-82251705D01*
X113515394Y-81650557D01*
X113088522Y-81222938D01*
X113101427Y-81188032D01*
X112128500Y-80215105D01*
X111155573Y-81188032D01*
X111168664Y-81223438D01*
X110743222Y-81648137D01*
X110493784Y-82248852D01*
X110493216Y-82899295D01*
X110741606Y-83500443D01*
X111086259Y-83845699D01*
X110743222Y-84188137D01*
X110493784Y-84788852D01*
X110493592Y-85009290D01*
X110443401Y-84959099D01*
X110196839Y-84794352D01*
X109906000Y-84736500D01*
X109395302Y-84736500D01*
X108555122Y-83896320D01*
X108555162Y-83850833D01*
X108413117Y-83507057D01*
X108150327Y-83243808D01*
X107806799Y-83101162D01*
X107434833Y-83100838D01*
X107091057Y-83242883D01*
X106827808Y-83505673D01*
X106685162Y-83849201D01*
X106684838Y-84221167D01*
X106826883Y-84564943D01*
X107089673Y-84828192D01*
X107433201Y-84970838D01*
X107480077Y-84970879D01*
X107874108Y-85364910D01*
X107626783Y-85364910D01*
X107391466Y-85409188D01*
X107227290Y-85514832D01*
X107186481Y-85474023D01*
X106953092Y-85377350D01*
X106712533Y-85377350D01*
X106553783Y-85536100D01*
X106299783Y-85536100D01*
X106141033Y-85377350D01*
X105900474Y-85377350D01*
X105667085Y-85474023D01*
X105488456Y-85652651D01*
X105391783Y-85886040D01*
X98236387Y-85886040D01*
X98267838Y-85810299D01*
X98268162Y-85438333D01*
X98126117Y-85094557D01*
X98093000Y-85061382D01*
X98093000Y-84287302D01*
X102609341Y-79770961D01*
X110482592Y-79770961D01*
X110506644Y-80420960D01*
X110709113Y-80909764D01*
X110975968Y-81008427D01*
X111948895Y-80035500D01*
X112308105Y-80035500D01*
X113281032Y-81008427D01*
X113547887Y-80909764D01*
X113774408Y-80300039D01*
X113750356Y-79650040D01*
X113547887Y-79161236D01*
X113281032Y-79062573D01*
X112308105Y-80035500D01*
X111948895Y-80035500D01*
X110975968Y-79062573D01*
X110709113Y-79161236D01*
X110482592Y-79770961D01*
X102609341Y-79770961D01*
X103497334Y-78882968D01*
X111155573Y-78882968D01*
X112128500Y-79855895D01*
X113101427Y-78882968D01*
X113002764Y-78616113D01*
X112393039Y-78389592D01*
X111743040Y-78413644D01*
X111254236Y-78616113D01*
X111155573Y-78882968D01*
X103497334Y-78882968D01*
X104124802Y-78255500D01*
X118328698Y-78255500D01*
X119020225Y-78947027D01*
X118951784Y-79111852D01*
X118951216Y-79762295D01*
X119199606Y-80363443D01*
X119544259Y-80708699D01*
X119201222Y-81051137D01*
X118951784Y-81651852D01*
X118951216Y-82302295D01*
X119199606Y-82903443D01*
X119626478Y-83331062D01*
X119613573Y-83365968D01*
X120586500Y-84338895D01*
X121559427Y-83365968D01*
X121546336Y-83330562D01*
X121971778Y-82905863D01*
X122221216Y-82305148D01*
X122221784Y-81654705D01*
X121973394Y-81053557D01*
X121628741Y-80708301D01*
X121971778Y-80365863D01*
X122221216Y-79765148D01*
X122221784Y-79114705D01*
X121973394Y-78513557D01*
X121513863Y-78053222D01*
X120913148Y-77803784D01*
X120262705Y-77803216D01*
X120095221Y-77872419D01*
X119180901Y-76958099D01*
X118934339Y-76793352D01*
X118643500Y-76735500D01*
X114126745Y-76735500D01*
X114334716Y-76234648D01*
X114335284Y-75584205D01*
X114086894Y-74983057D01*
X113627363Y-74522722D01*
X113026648Y-74273284D01*
X112376205Y-74272716D01*
X111775057Y-74521106D01*
X111314722Y-74980637D01*
X111065284Y-75581352D01*
X111064716Y-76231795D01*
X111272843Y-76735500D01*
X104685722Y-76735500D01*
X104856192Y-76565327D01*
X104998838Y-76221799D01*
X104999162Y-75849833D01*
X104857117Y-75506057D01*
X104594327Y-75242808D01*
X104498548Y-75203037D01*
X104867151Y-75129717D01*
X105332698Y-74818648D01*
X105430251Y-74672650D01*
X105454838Y-74803317D01*
X105593910Y-75019441D01*
X105806110Y-75164431D01*
X106058000Y-75215440D01*
X107658000Y-75215440D01*
X107893317Y-75171162D01*
X108109441Y-75032090D01*
X108254431Y-74819890D01*
X108284597Y-74670926D01*
X108383302Y-74818648D01*
X108848849Y-75129717D01*
X109398000Y-75238950D01*
X109947151Y-75129717D01*
X110412698Y-74818648D01*
X110723767Y-74353101D01*
X110833000Y-73803950D01*
X110833000Y-72932050D01*
X110723767Y-72382899D01*
X110496926Y-72043407D01*
X113640500Y-72043407D01*
X113640500Y-72101593D01*
X113753539Y-72669878D01*
X114075446Y-73151647D01*
X114557215Y-73473554D01*
X115125500Y-73586593D01*
X115693785Y-73473554D01*
X116175554Y-73151647D01*
X116395500Y-72822474D01*
X116615446Y-73151647D01*
X117097215Y-73473554D01*
X117665500Y-73586593D01*
X118233785Y-73473554D01*
X118715554Y-73151647D01*
X118943202Y-72810947D01*
X119010317Y-72953858D01*
X119438576Y-73344145D01*
X119848610Y-73513976D01*
X120078500Y-73392655D01*
X120078500Y-72199500D01*
X120058500Y-72199500D01*
X120058500Y-71945500D01*
X120078500Y-71945500D01*
X120078500Y-70752345D01*
X120332500Y-70752345D01*
X120332500Y-71945500D01*
X120352500Y-71945500D01*
X120352500Y-72199500D01*
X120332500Y-72199500D01*
X120332500Y-73392655D01*
X120562390Y-73513976D01*
X120972424Y-73344145D01*
X121275437Y-73067999D01*
X121292338Y-73157817D01*
X121431410Y-73373941D01*
X121643610Y-73518931D01*
X121895500Y-73569940D01*
X123595500Y-73569940D01*
X123830817Y-73525662D01*
X124046941Y-73386590D01*
X124191931Y-73174390D01*
X124242940Y-72922500D01*
X124242940Y-71222500D01*
X124198662Y-70987183D01*
X124059590Y-70771059D01*
X123847390Y-70626069D01*
X123595500Y-70575060D01*
X121895500Y-70575060D01*
X121660183Y-70619338D01*
X121444059Y-70758410D01*
X121299069Y-70970610D01*
X121277199Y-71078607D01*
X120972424Y-70800855D01*
X120562390Y-70631024D01*
X120332500Y-70752345D01*
X120078500Y-70752345D01*
X119848610Y-70631024D01*
X119438576Y-70800855D01*
X119010317Y-71191142D01*
X118943202Y-71334053D01*
X118715554Y-70993353D01*
X118233785Y-70671446D01*
X117665500Y-70558407D01*
X117097215Y-70671446D01*
X116615446Y-70993353D01*
X116395500Y-71322526D01*
X116175554Y-70993353D01*
X115693785Y-70671446D01*
X115125500Y-70558407D01*
X114557215Y-70671446D01*
X114075446Y-70993353D01*
X113753539Y-71475122D01*
X113640500Y-72043407D01*
X110496926Y-72043407D01*
X110412698Y-71917352D01*
X109947151Y-71606283D01*
X109398000Y-71497050D01*
X108848849Y-71606283D01*
X108383302Y-71917352D01*
X108285749Y-72063350D01*
X108261162Y-71932683D01*
X108122090Y-71716559D01*
X107909890Y-71571569D01*
X107658000Y-71520560D01*
X106058000Y-71520560D01*
X105822683Y-71564838D01*
X105606559Y-71703910D01*
X105461569Y-71916110D01*
X105431403Y-72065074D01*
X105332698Y-71917352D01*
X104867151Y-71606283D01*
X104318000Y-71497050D01*
X103768849Y-71606283D01*
X103303302Y-71917352D01*
X103205749Y-72063350D01*
X103181162Y-71932683D01*
X103042090Y-71716559D01*
X102829890Y-71571569D01*
X102578000Y-71520560D01*
X100978000Y-71520560D01*
X100742683Y-71564838D01*
X100577156Y-71671352D01*
X98065168Y-69159364D01*
X98407167Y-69159662D01*
X98750943Y-69017617D01*
X99014192Y-68754827D01*
X99156838Y-68411299D01*
X99157162Y-68039333D01*
X99015117Y-67695557D01*
X98982000Y-67662382D01*
X98982000Y-67661431D01*
X99073441Y-67602590D01*
X99218431Y-67390390D01*
X99269440Y-67138500D01*
X99269440Y-66338500D01*
X99225162Y-66103183D01*
X99118241Y-65937023D01*
X99218431Y-65790390D01*
X99269440Y-65538500D01*
X99269440Y-65312050D01*
X100343000Y-65312050D01*
X100343000Y-66183950D01*
X100452233Y-66733101D01*
X100763302Y-67198648D01*
X101228849Y-67509717D01*
X101778000Y-67618950D01*
X102327151Y-67509717D01*
X102792698Y-67198648D01*
X103048000Y-66816562D01*
X103303302Y-67198648D01*
X103768849Y-67509717D01*
X104318000Y-67618950D01*
X104867151Y-67509717D01*
X105332698Y-67198648D01*
X105588000Y-66816562D01*
X105843302Y-67198648D01*
X106308849Y-67509717D01*
X106858000Y-67618950D01*
X107407151Y-67509717D01*
X107872698Y-67198648D01*
X108128000Y-66816562D01*
X108383302Y-67198648D01*
X108848849Y-67509717D01*
X109398000Y-67618950D01*
X109947151Y-67509717D01*
X110412698Y-67198648D01*
X110690426Y-66783000D01*
X111422971Y-66783000D01*
X111772637Y-67133278D01*
X112373352Y-67382716D01*
X113023795Y-67383284D01*
X113624943Y-67134894D01*
X114085278Y-66675363D01*
X114334716Y-66074648D01*
X114335284Y-65424205D01*
X114086894Y-64823057D01*
X113627363Y-64362722D01*
X113026648Y-64113284D01*
X112918443Y-64113190D01*
X113177856Y-63939856D01*
X114463854Y-62653857D01*
X114463857Y-62653855D01*
X114560860Y-62556852D01*
X115055795Y-62557284D01*
X115656943Y-62308894D01*
X116002199Y-61964241D01*
X116344637Y-62307278D01*
X116945352Y-62556716D01*
X117595795Y-62557284D01*
X118196943Y-62308894D01*
X118657278Y-61849363D01*
X118906716Y-61248648D01*
X118907284Y-60598205D01*
X118658894Y-59997057D01*
X118433232Y-59771000D01*
X121119868Y-59771000D01*
X121155278Y-59806410D01*
X120966722Y-59994637D01*
X120717284Y-60595352D01*
X120716716Y-61245795D01*
X120965106Y-61846943D01*
X121424637Y-62307278D01*
X121761650Y-62447218D01*
X121549434Y-62659434D01*
X121303397Y-63027654D01*
X121217000Y-63462000D01*
X121217000Y-67208500D01*
X121303397Y-67642846D01*
X121486652Y-67917106D01*
X121549434Y-68011066D01*
X125805001Y-72266633D01*
X125805001Y-74908001D01*
X125891398Y-75342347D01*
X125999861Y-75504673D01*
X126137435Y-75710567D01*
X126305025Y-75878157D01*
X126304716Y-76231795D01*
X126553106Y-76832943D01*
X127012637Y-77293278D01*
X127613352Y-77542716D01*
X128263795Y-77543284D01*
X128864943Y-77294894D01*
X129325278Y-76835363D01*
X129574716Y-76234648D01*
X129575284Y-75584205D01*
X129326894Y-74983057D01*
X128867363Y-74522722D01*
X128266648Y-74273284D01*
X128075001Y-74273117D01*
X128075001Y-71796501D01*
X127988604Y-71362155D01*
X127742567Y-70993935D01*
X123487000Y-66738368D01*
X123487000Y-66071795D01*
X123764716Y-66071795D01*
X124013106Y-66672943D01*
X124472637Y-67133278D01*
X125073352Y-67382716D01*
X125723795Y-67383284D01*
X126324943Y-67134894D01*
X126670199Y-66790241D01*
X127012637Y-67133278D01*
X127613352Y-67382716D01*
X128263795Y-67383284D01*
X128864943Y-67134894D01*
X129325278Y-66675363D01*
X129574716Y-66074648D01*
X129575284Y-65424205D01*
X129326894Y-64823057D01*
X128867363Y-64362722D01*
X128266648Y-64113284D01*
X127616205Y-64112716D01*
X127015057Y-64361106D01*
X126669801Y-64705759D01*
X126327363Y-64362722D01*
X125726648Y-64113284D01*
X125076205Y-64112716D01*
X124475057Y-64361106D01*
X124014722Y-64820637D01*
X123765284Y-65421352D01*
X123764716Y-66071795D01*
X123487000Y-66071795D01*
X123487000Y-63932132D01*
X124862157Y-62556975D01*
X125215795Y-62557284D01*
X125816943Y-62308894D01*
X126162199Y-61964241D01*
X126504637Y-62307278D01*
X127105352Y-62556716D01*
X127755795Y-62557284D01*
X128356943Y-62308894D01*
X128817278Y-61849363D01*
X129066716Y-61248648D01*
X129067284Y-60598205D01*
X128818894Y-59997057D01*
X128359363Y-59536722D01*
X127758648Y-59287284D01*
X127108205Y-59286716D01*
X126507057Y-59535106D01*
X126161801Y-59879759D01*
X125819363Y-59536722D01*
X125218648Y-59287284D01*
X124568205Y-59286716D01*
X123967057Y-59535106D01*
X123621801Y-59879759D01*
X123487000Y-59744722D01*
X123487000Y-59398000D01*
X123400603Y-58963654D01*
X123154566Y-58595434D01*
X122392566Y-57833434D01*
X122024346Y-57587397D01*
X121590000Y-57501000D01*
X102794000Y-57501000D01*
X102359654Y-57587397D01*
X101991434Y-57833434D01*
X101229434Y-58595434D01*
X100983397Y-58963654D01*
X100897000Y-59398000D01*
X100897000Y-59744796D01*
X100646722Y-59994637D01*
X100397284Y-60595352D01*
X100396716Y-61245795D01*
X100645106Y-61846943D01*
X101104637Y-62307278D01*
X101541577Y-62488711D01*
X101046144Y-62984144D01*
X100821785Y-63319923D01*
X100742999Y-63716000D01*
X100743000Y-63716005D01*
X100743000Y-64327736D01*
X100452233Y-64762899D01*
X100343000Y-65312050D01*
X99269440Y-65312050D01*
X99269440Y-64738500D01*
X99225162Y-64503183D01*
X99086090Y-64287059D01*
X98873890Y-64142069D01*
X98664460Y-64099658D01*
X97121952Y-62557150D01*
X97275795Y-62557284D01*
X97876943Y-62308894D01*
X98337278Y-61849363D01*
X98586716Y-61248648D01*
X98587284Y-60598205D01*
X98338894Y-59997057D01*
X97879363Y-59536722D01*
X97278648Y-59287284D01*
X96628205Y-59286716D01*
X96027057Y-59535106D01*
X95681801Y-59879759D01*
X95339363Y-59536722D01*
X94738648Y-59287284D01*
X94088205Y-59286716D01*
X93487057Y-59535106D01*
X93141801Y-59879759D01*
X92799363Y-59536722D01*
X92198648Y-59287284D01*
X91548205Y-59286716D01*
X90947057Y-59535106D01*
X90486722Y-59994637D01*
X90237284Y-60595352D01*
X90236716Y-61245795D01*
X90485106Y-61846943D01*
X90589645Y-61951665D01*
X90531002Y-61940000D01*
X87827446Y-61940000D01*
X87806043Y-61888200D01*
X87402723Y-61484176D01*
X87272585Y-61430138D01*
X87400600Y-61377243D01*
X87804624Y-60973923D01*
X88023550Y-60446691D01*
X88024048Y-59875813D01*
X87806043Y-59348200D01*
X87402723Y-58944176D01*
X87272585Y-58890138D01*
X87400600Y-58837243D01*
X87804624Y-58433923D01*
X88023550Y-57906691D01*
X88024048Y-57335813D01*
X87806043Y-56808200D01*
X87402723Y-56404176D01*
X87272585Y-56350138D01*
X87400600Y-56297243D01*
X87804624Y-55893923D01*
X87992021Y-55442619D01*
X132764613Y-55442619D01*
X133104155Y-56264372D01*
X133732321Y-56893636D01*
X134553481Y-57234611D01*
X135442619Y-57235387D01*
X136264372Y-56895845D01*
X136893636Y-56267679D01*
X137234611Y-55446519D01*
X137235387Y-54557381D01*
X136895845Y-53735628D01*
X136267679Y-53106364D01*
X135446519Y-52765389D01*
X134557381Y-52764613D01*
X133735628Y-53104155D01*
X133106364Y-53732321D01*
X132765389Y-54553481D01*
X132764613Y-55442619D01*
X87992021Y-55442619D01*
X88023550Y-55366691D01*
X88024048Y-54795813D01*
X87806043Y-54268200D01*
X87402723Y-53864176D01*
X87288032Y-53816552D01*
X87342805Y-53793864D01*
X87416939Y-53547745D01*
X86588800Y-52719605D01*
X85760661Y-53547745D01*
X85834795Y-53793864D01*
X85893054Y-53814805D01*
X85777000Y-53862757D01*
X85372976Y-54266077D01*
X85154050Y-54793309D01*
X85153552Y-55364187D01*
X72783552Y-55364187D01*
X72784048Y-54795813D01*
X72566043Y-54268200D01*
X72162723Y-53864176D01*
X72032585Y-53810138D01*
X72160600Y-53757243D01*
X72564624Y-53353923D01*
X72783550Y-52826691D01*
X72783989Y-52323223D01*
X85141835Y-52323223D01*
X85169022Y-52893454D01*
X85334936Y-53294005D01*
X85581055Y-53368139D01*
X86409195Y-52540000D01*
X86768405Y-52540000D01*
X87596545Y-53368139D01*
X87842664Y-53294005D01*
X88035765Y-52756777D01*
X88008578Y-52186546D01*
X87842664Y-51785995D01*
X87596545Y-51711861D01*
X86768405Y-52540000D01*
X86409195Y-52540000D01*
X85581055Y-51711861D01*
X85334936Y-51785995D01*
X85141835Y-52323223D01*
X72783989Y-52323223D01*
X72784048Y-52255813D01*
X72566043Y-51728200D01*
X72370440Y-51532255D01*
X85760661Y-51532255D01*
X86588800Y-52360395D01*
X87416939Y-51532255D01*
X87342805Y-51286136D01*
X86805577Y-51093035D01*
X86235346Y-51120222D01*
X85834795Y-51286136D01*
X85760661Y-51532255D01*
X72370440Y-51532255D01*
X72162723Y-51324176D01*
X71635491Y-51105250D01*
X71064613Y-51104752D01*
X70537000Y-51322757D01*
X70132976Y-51726077D01*
X69914050Y-52253309D01*
X69913552Y-52824187D01*
X65588121Y-52824187D01*
X65446519Y-52765389D01*
X64557381Y-52764613D01*
X63735628Y-53104155D01*
X63106364Y-53732321D01*
X62765389Y-54553481D01*
X62764613Y-55442619D01*
X60685000Y-55442619D01*
X60685000Y-50685000D01*
X139315000Y-50685000D01*
X139315000Y-109315000D01*
G36*
X92009263Y-65253063D02*
X91709057Y-65377106D01*
X91248722Y-65836637D01*
X90999284Y-66437352D01*
X90998716Y-67087795D01*
X91247106Y-67688943D01*
X91591759Y-68034199D01*
X91248722Y-68376637D01*
X90999284Y-68977352D01*
X90998716Y-69627795D01*
X91247106Y-70228943D01*
X91673978Y-70656562D01*
X91661073Y-70691468D01*
X92634000Y-71664395D01*
X93606927Y-70691468D01*
X93593836Y-70656062D01*
X94019278Y-70231363D01*
X94268716Y-69630648D01*
X94269284Y-68980205D01*
X94020894Y-68379057D01*
X93676241Y-68033801D01*
X94019278Y-67691363D01*
X94144938Y-67388738D01*
X99892999Y-73136799D01*
X99892999Y-74782999D01*
X99950851Y-75073838D01*
X100115598Y-75320400D01*
X101038217Y-76243019D01*
X100830831Y-76242838D01*
X100487055Y-76384883D01*
X100223806Y-76647673D01*
X100081160Y-76991201D01*
X100081119Y-77038077D01*
X97399196Y-79720000D01*
X87827446Y-79720000D01*
X87806043Y-79668200D01*
X87402723Y-79264176D01*
X87272585Y-79210138D01*
X87400600Y-79157243D01*
X87804624Y-78753923D01*
X88023550Y-78226691D01*
X88024048Y-77655813D01*
X87806043Y-77128200D01*
X87402723Y-76724176D01*
X87272585Y-76670138D01*
X87400600Y-76617243D01*
X87804624Y-76213923D01*
X88023550Y-75686691D01*
X88024048Y-75115813D01*
X87806043Y-74588200D01*
X87402723Y-74184176D01*
X87272585Y-74130138D01*
X87400600Y-74077243D01*
X87804624Y-73673923D01*
X88023550Y-73146691D01*
X88023680Y-72996532D01*
X91661073Y-72996532D01*
X91759736Y-73263387D01*
X92369461Y-73489908D01*
X93019460Y-73465856D01*
X93508264Y-73263387D01*
X93606927Y-72996532D01*
X92634000Y-72023605D01*
X91661073Y-72996532D01*
X88023680Y-72996532D01*
X88024048Y-72575813D01*
X87806043Y-72048200D01*
X87402723Y-71644176D01*
X87272585Y-71590138D01*
X87298425Y-71579461D01*
X90988092Y-71579461D01*
X91012144Y-72229460D01*
X91214613Y-72718264D01*
X91481468Y-72816927D01*
X92454395Y-71844000D01*
X92813605Y-71844000D01*
X93786532Y-72816927D01*
X94053387Y-72718264D01*
X94279908Y-72108539D01*
X94255856Y-71458540D01*
X94053387Y-70969736D01*
X93786532Y-70871073D01*
X92813605Y-71844000D01*
X92454395Y-71844000D01*
X91481468Y-70871073D01*
X91214613Y-70969736D01*
X90988092Y-71579461D01*
X87298425Y-71579461D01*
X87400600Y-71537243D01*
X87804624Y-71133923D01*
X88023550Y-70606691D01*
X88024048Y-70035813D01*
X87806043Y-69508200D01*
X87402723Y-69104176D01*
X87272585Y-69050138D01*
X87400600Y-68997243D01*
X87804624Y-68593923D01*
X88023550Y-68066691D01*
X88024048Y-67495813D01*
X87806043Y-66968200D01*
X87402723Y-66564176D01*
X87272585Y-66510138D01*
X87400600Y-66457243D01*
X87804624Y-66053923D01*
X88023550Y-65526691D01*
X88024048Y-64955813D01*
X87806043Y-64428200D01*
X87402723Y-64024176D01*
X87272585Y-63970138D01*
X87400600Y-63917243D01*
X87804624Y-63513923D01*
X87827015Y-63460000D01*
X90216200Y-63460000D01*
X92009263Y-65253063D01*
X92009263Y-65253063D01*
G37*
X92009263Y-65253063D02*
X91709057Y-65377106D01*
X91248722Y-65836637D01*
X90999284Y-66437352D01*
X90998716Y-67087795D01*
X91247106Y-67688943D01*
X91591759Y-68034199D01*
X91248722Y-68376637D01*
X90999284Y-68977352D01*
X90998716Y-69627795D01*
X91247106Y-70228943D01*
X91673978Y-70656562D01*
X91661073Y-70691468D01*
X92634000Y-71664395D01*
X93606927Y-70691468D01*
X93593836Y-70656062D01*
X94019278Y-70231363D01*
X94268716Y-69630648D01*
X94269284Y-68980205D01*
X94020894Y-68379057D01*
X93676241Y-68033801D01*
X94019278Y-67691363D01*
X94144938Y-67388738D01*
X99892999Y-73136799D01*
X99892999Y-74782999D01*
X99950851Y-75073838D01*
X100115598Y-75320400D01*
X101038217Y-76243019D01*
X100830831Y-76242838D01*
X100487055Y-76384883D01*
X100223806Y-76647673D01*
X100081160Y-76991201D01*
X100081119Y-77038077D01*
X97399196Y-79720000D01*
X87827446Y-79720000D01*
X87806043Y-79668200D01*
X87402723Y-79264176D01*
X87272585Y-79210138D01*
X87400600Y-79157243D01*
X87804624Y-78753923D01*
X88023550Y-78226691D01*
X88024048Y-77655813D01*
X87806043Y-77128200D01*
X87402723Y-76724176D01*
X87272585Y-76670138D01*
X87400600Y-76617243D01*
X87804624Y-76213923D01*
X88023550Y-75686691D01*
X88024048Y-75115813D01*
X87806043Y-74588200D01*
X87402723Y-74184176D01*
X87272585Y-74130138D01*
X87400600Y-74077243D01*
X87804624Y-73673923D01*
X88023550Y-73146691D01*
X88023680Y-72996532D01*
X91661073Y-72996532D01*
X91759736Y-73263387D01*
X92369461Y-73489908D01*
X93019460Y-73465856D01*
X93508264Y-73263387D01*
X93606927Y-72996532D01*
X92634000Y-72023605D01*
X91661073Y-72996532D01*
X88023680Y-72996532D01*
X88024048Y-72575813D01*
X87806043Y-72048200D01*
X87402723Y-71644176D01*
X87272585Y-71590138D01*
X87298425Y-71579461D01*
X90988092Y-71579461D01*
X91012144Y-72229460D01*
X91214613Y-72718264D01*
X91481468Y-72816927D01*
X92454395Y-71844000D01*
X92813605Y-71844000D01*
X93786532Y-72816927D01*
X94053387Y-72718264D01*
X94279908Y-72108539D01*
X94255856Y-71458540D01*
X94053387Y-70969736D01*
X93786532Y-70871073D01*
X92813605Y-71844000D01*
X92454395Y-71844000D01*
X91481468Y-70871073D01*
X91214613Y-70969736D01*
X90988092Y-71579461D01*
X87298425Y-71579461D01*
X87400600Y-71537243D01*
X87804624Y-71133923D01*
X88023550Y-70606691D01*
X88024048Y-70035813D01*
X87806043Y-69508200D01*
X87402723Y-69104176D01*
X87272585Y-69050138D01*
X87400600Y-68997243D01*
X87804624Y-68593923D01*
X88023550Y-68066691D01*
X88024048Y-67495813D01*
X87806043Y-66968200D01*
X87402723Y-66564176D01*
X87272585Y-66510138D01*
X87400600Y-66457243D01*
X87804624Y-66053923D01*
X88023550Y-65526691D01*
X88024048Y-64955813D01*
X87806043Y-64428200D01*
X87402723Y-64024176D01*
X87272585Y-63970138D01*
X87400600Y-63917243D01*
X87804624Y-63513923D01*
X87827015Y-63460000D01*
X90216200Y-63460000D01*
X92009263Y-65253063D01*
G36*
X93484637Y-62307278D02*
X94085352Y-62556716D01*
X94735795Y-62557284D01*
X94903279Y-62488081D01*
X97174560Y-64759362D01*
X97174560Y-65538500D01*
X97218838Y-65773817D01*
X97325759Y-65939977D01*
X97225569Y-66086610D01*
X97174560Y-66338500D01*
X97174560Y-67138500D01*
X97218838Y-67373817D01*
X97357910Y-67589941D01*
X97462000Y-67661063D01*
X97462000Y-67662037D01*
X97429808Y-67694173D01*
X97287162Y-68037701D01*
X97286863Y-68381059D01*
X91403702Y-62497898D01*
X91545352Y-62556716D01*
X92195795Y-62557284D01*
X92796943Y-62308894D01*
X93142199Y-61964241D01*
X93484637Y-62307278D01*
X93484637Y-62307278D01*
G37*
X93484637Y-62307278D02*
X94085352Y-62556716D01*
X94735795Y-62557284D01*
X94903279Y-62488081D01*
X97174560Y-64759362D01*
X97174560Y-65538500D01*
X97218838Y-65773817D01*
X97325759Y-65939977D01*
X97225569Y-66086610D01*
X97174560Y-66338500D01*
X97174560Y-67138500D01*
X97218838Y-67373817D01*
X97357910Y-67589941D01*
X97462000Y-67661063D01*
X97462000Y-67662037D01*
X97429808Y-67694173D01*
X97287162Y-68037701D01*
X97286863Y-68381059D01*
X91403702Y-62497898D01*
X91545352Y-62556716D01*
X92195795Y-62557284D01*
X92796943Y-62308894D01*
X93142199Y-61964241D01*
X93484637Y-62307278D01*
M02*
