G04 #@! TF.FileFunction,Legend,Bot*
%FSLAX46Y46*%
G04 Gerber Fmt 4.6, Leading zero omitted, Abs format (unit mm)*
G04 Created by KiCad (PCBNEW 4.0.6) date 03/12/17 16:17:21*
%MOMM*%
%LPD*%
G01*
G04 APERTURE LIST*
%ADD10C,0.100000*%
%ADD11C,0.120000*%
%ADD12C,0.150000*%
%ADD13C,3.200000*%
%ADD14R,0.900000X1.200000*%
%ADD15C,2.600000*%
%ADD16C,3.500000*%
%ADD17C,1.800000*%
%ADD18R,0.750000X0.800000*%
%ADD19R,0.800000X0.750000*%
%ADD20R,0.800000X1.100000*%
%ADD21R,2.000000X1.100000*%
%ADD22C,2.400000*%
%ADD23C,2.200000*%
%ADD24C,1.500000*%
%ADD25R,1.524000X1.524000*%
%ADD26C,2.000000*%
%ADD27R,1.700000X1.700000*%
%ADD28O,1.700000X1.700000*%
%ADD29R,1.200000X0.900000*%
%ADD30C,1.600000*%
%ADD31R,1.600000X2.400000*%
%ADD32O,1.600000X2.400000*%
%ADD33R,0.600000X1.550000*%
%ADD34R,2.100000X1.800000*%
%ADD35C,2.500000*%
%ADD36R,1.250000X1.000000*%
%ADD37R,1.000000X1.250000*%
G04 APERTURE END LIST*
D10*
D11*
X105670000Y-69693000D02*
X105670000Y-70693000D01*
X107030000Y-70693000D02*
X107030000Y-69693000D01*
X97144594Y-75329987D02*
X96437487Y-76037094D01*
X95235406Y-74835013D02*
X95942513Y-74127906D01*
X88541500Y-89972500D02*
X88541500Y-90672500D01*
X89741500Y-90672500D02*
X89741500Y-89972500D01*
X93047500Y-91881500D02*
X92347500Y-91881500D01*
X92347500Y-93081500D02*
X93047500Y-93081500D01*
X106924000Y-64008000D02*
X109974000Y-64008000D01*
X109974000Y-64008000D02*
X109974000Y-62408000D01*
X109974000Y-62408000D02*
X106924000Y-62408000D01*
X122418000Y-64008000D02*
X125468000Y-64008000D01*
X125468000Y-64008000D02*
X125468000Y-62408000D01*
X125468000Y-62408000D02*
X122418000Y-62408000D01*
D12*
X117886500Y-87218500D02*
X117886500Y-90018500D01*
X117886500Y-79018500D02*
X117886500Y-81818500D01*
X117886500Y-77018500D02*
X116836500Y-77018500D01*
X116836500Y-77018500D02*
X116836500Y-79018500D01*
X116836500Y-79018500D02*
X117886500Y-79018500D01*
X117886500Y-92018500D02*
X116836500Y-92018500D01*
X116836500Y-92018500D02*
X116836500Y-90018500D01*
X116836500Y-90018500D02*
X117886500Y-90018500D01*
X115786500Y-84518500D02*
X115786500Y-81818500D01*
X115786500Y-81818500D02*
X117886500Y-81818500D01*
X115786500Y-84518500D02*
X115786500Y-87218500D01*
X115786500Y-87218500D02*
X117886500Y-87218500D01*
X123786500Y-92018500D02*
X117886500Y-92018500D01*
X117886500Y-77018500D02*
X123786500Y-77018500D01*
X123786500Y-77018500D02*
X123786500Y-84518500D01*
X123786500Y-84518500D02*
X123786500Y-92018500D01*
D11*
X121475500Y-73462500D02*
X113735500Y-73462500D01*
X113735500Y-73462500D02*
X113735500Y-70682500D01*
X113735500Y-70682500D02*
X121475500Y-70682500D01*
X121475500Y-70682500D02*
X121475500Y-73462500D01*
X122745500Y-73462500D02*
X124135500Y-73462500D01*
X124135500Y-73462500D02*
X124135500Y-72072500D01*
X110535000Y-84172501D02*
X110535000Y-83172501D01*
X109175000Y-83172501D02*
X109175000Y-84172501D01*
X97542000Y-65438500D02*
X97542000Y-66438500D01*
X98902000Y-66438500D02*
X98902000Y-65438500D01*
X107726783Y-85732350D02*
X106726783Y-85732350D01*
X106726783Y-87092350D02*
X107726783Y-87092350D01*
X107726783Y-86989586D02*
X106726783Y-86989586D01*
X106726783Y-88349586D02*
X107726783Y-88349586D01*
X107726783Y-88246822D02*
X106726783Y-88246822D01*
X106726783Y-89606822D02*
X107726783Y-89606822D01*
X107726783Y-89504058D02*
X106726783Y-89504058D01*
X106726783Y-90864058D02*
X107726783Y-90864058D01*
X107194000Y-69693000D02*
X107194000Y-70693000D01*
X108554000Y-70693000D02*
X108554000Y-69693000D01*
X102622000Y-69693000D02*
X102622000Y-70693000D01*
X103982000Y-70693000D02*
X103982000Y-69693000D01*
X104146000Y-69693000D02*
X104146000Y-70693000D01*
X105506000Y-70693000D02*
X105506000Y-69693000D01*
X72523000Y-99093500D02*
X72523000Y-100093500D01*
X73883000Y-100093500D02*
X73883000Y-99093500D01*
X84932000Y-100093500D02*
X84932000Y-99093500D01*
X83572000Y-99093500D02*
X83572000Y-100093500D01*
D12*
X100000000Y-89322555D02*
X99292893Y-88615448D01*
X107318555Y-82004000D02*
X106558415Y-81243860D01*
X100000000Y-74685445D02*
X100760140Y-75445585D01*
X92681445Y-82004000D02*
X93441585Y-82764140D01*
X100000000Y-89322555D02*
X100760140Y-88562415D01*
X92681445Y-82004000D02*
X93441585Y-81243860D01*
X100000000Y-74685445D02*
X99239860Y-75445585D01*
X107318555Y-82004000D02*
X106558415Y-82764140D01*
X99292893Y-88615448D02*
X98568109Y-89340233D01*
X72279000Y-91168500D02*
X72329000Y-91168500D01*
X72279000Y-95318500D02*
X72424000Y-95318500D01*
X77429000Y-95318500D02*
X77284000Y-95318500D01*
X77429000Y-91168500D02*
X77284000Y-91168500D01*
X72279000Y-91168500D02*
X72279000Y-95318500D01*
X77429000Y-91168500D02*
X77429000Y-95318500D01*
X72329000Y-91168500D02*
X72329000Y-89768500D01*
X79899000Y-91168500D02*
X79949000Y-91168500D01*
X79899000Y-95318500D02*
X80044000Y-95318500D01*
X85049000Y-95318500D02*
X84904000Y-95318500D01*
X85049000Y-91168500D02*
X84904000Y-91168500D01*
X79899000Y-91168500D02*
X79899000Y-95318500D01*
X85049000Y-91168500D02*
X85049000Y-95318500D01*
X79949000Y-91168500D02*
X79949000Y-89768500D01*
D11*
X89997500Y-91697000D02*
X89997500Y-87297000D01*
X89997500Y-87297000D02*
X95397500Y-87297000D01*
X95389000Y-70201000D02*
X95389000Y-71201000D01*
X93689000Y-71201000D02*
X93689000Y-70201000D01*
X92642000Y-58040000D02*
X93642000Y-58040000D01*
X93642000Y-59740000D02*
X92642000Y-59740000D01*
D12*
X109723381Y-69010334D02*
X109247190Y-68677000D01*
X109723381Y-68438905D02*
X108723381Y-68438905D01*
X108723381Y-68819858D01*
X108771000Y-68915096D01*
X108818619Y-68962715D01*
X108913857Y-69010334D01*
X109056714Y-69010334D01*
X109151952Y-68962715D01*
X109199571Y-68915096D01*
X109247190Y-68819858D01*
X109247190Y-68438905D01*
X109723381Y-69486524D02*
X109723381Y-69677000D01*
X109675762Y-69772239D01*
X109628143Y-69819858D01*
X109485286Y-69915096D01*
X109294810Y-69962715D01*
X108913857Y-69962715D01*
X108818619Y-69915096D01*
X108771000Y-69867477D01*
X108723381Y-69772239D01*
X108723381Y-69581762D01*
X108771000Y-69486524D01*
X108818619Y-69438905D01*
X108913857Y-69391286D01*
X109151952Y-69391286D01*
X109247190Y-69438905D01*
X109294810Y-69486524D01*
X109342429Y-69581762D01*
X109342429Y-69772239D01*
X109294810Y-69867477D01*
X109247190Y-69915096D01*
X109151952Y-69962715D01*
X98465389Y-73312188D02*
X98532732Y-73312188D01*
X98667419Y-73244844D01*
X98734763Y-73177501D01*
X98802107Y-73042813D01*
X98802107Y-72908126D01*
X98768435Y-72807111D01*
X98667420Y-72638753D01*
X98566404Y-72537737D01*
X98398045Y-72436722D01*
X98297030Y-72403050D01*
X98162343Y-72403050D01*
X98027656Y-72470394D01*
X97960312Y-72537737D01*
X97892969Y-72672424D01*
X97892969Y-72739768D01*
X97589924Y-72908126D02*
X97152190Y-73345859D01*
X97657267Y-73379530D01*
X97556251Y-73480546D01*
X97522579Y-73581561D01*
X97522579Y-73648905D01*
X97556252Y-73749921D01*
X97724610Y-73918279D01*
X97825626Y-73951951D01*
X97892969Y-73951951D01*
X97993984Y-73918279D01*
X98196015Y-73716248D01*
X98229687Y-73615233D01*
X98229687Y-73547890D01*
X89522643Y-87615834D02*
X89570262Y-87568215D01*
X89617881Y-87425358D01*
X89617881Y-87330120D01*
X89570262Y-87187262D01*
X89475024Y-87092024D01*
X89379786Y-87044405D01*
X89189310Y-86996786D01*
X89046452Y-86996786D01*
X88855976Y-87044405D01*
X88760738Y-87092024D01*
X88665500Y-87187262D01*
X88617881Y-87330120D01*
X88617881Y-87425358D01*
X88665500Y-87568215D01*
X88713119Y-87615834D01*
X88951214Y-88472977D02*
X89617881Y-88472977D01*
X88570262Y-88234881D02*
X89284548Y-87996786D01*
X89284548Y-88615834D01*
X95404166Y-92862643D02*
X95451785Y-92910262D01*
X95594642Y-92957881D01*
X95689880Y-92957881D01*
X95832738Y-92910262D01*
X95927976Y-92815024D01*
X95975595Y-92719786D01*
X96023214Y-92529310D01*
X96023214Y-92386452D01*
X95975595Y-92195976D01*
X95927976Y-92100738D01*
X95832738Y-92005500D01*
X95689880Y-91957881D01*
X95594642Y-91957881D01*
X95451785Y-92005500D01*
X95404166Y-92053119D01*
X94499404Y-91957881D02*
X94975595Y-91957881D01*
X95023214Y-92434071D01*
X94975595Y-92386452D01*
X94880357Y-92338833D01*
X94642261Y-92338833D01*
X94547023Y-92386452D01*
X94499404Y-92434071D01*
X94451785Y-92529310D01*
X94451785Y-92767405D01*
X94499404Y-92862643D01*
X94547023Y-92910262D01*
X94642261Y-92957881D01*
X94880357Y-92957881D01*
X94975595Y-92910262D01*
X95023214Y-92862643D01*
X106072095Y-63660381D02*
X106072095Y-62660381D01*
X105834000Y-62660381D01*
X105691142Y-62708000D01*
X105595904Y-62803238D01*
X105548285Y-62898476D01*
X105500666Y-63088952D01*
X105500666Y-63231810D01*
X105548285Y-63422286D01*
X105595904Y-63517524D01*
X105691142Y-63612762D01*
X105834000Y-63660381D01*
X106072095Y-63660381D01*
X104643523Y-62660381D02*
X104834000Y-62660381D01*
X104929238Y-62708000D01*
X104976857Y-62755619D01*
X105072095Y-62898476D01*
X105119714Y-63088952D01*
X105119714Y-63469905D01*
X105072095Y-63565143D01*
X105024476Y-63612762D01*
X104929238Y-63660381D01*
X104738761Y-63660381D01*
X104643523Y-63612762D01*
X104595904Y-63565143D01*
X104548285Y-63469905D01*
X104548285Y-63231810D01*
X104595904Y-63136571D01*
X104643523Y-63088952D01*
X104738761Y-63041333D01*
X104929238Y-63041333D01*
X105024476Y-63088952D01*
X105072095Y-63136571D01*
X105119714Y-63231810D01*
X121566095Y-63660381D02*
X121566095Y-62660381D01*
X121328000Y-62660381D01*
X121185142Y-62708000D01*
X121089904Y-62803238D01*
X121042285Y-62898476D01*
X120994666Y-63088952D01*
X120994666Y-63231810D01*
X121042285Y-63422286D01*
X121089904Y-63517524D01*
X121185142Y-63612762D01*
X121328000Y-63660381D01*
X121566095Y-63660381D01*
X120661333Y-62660381D02*
X119994666Y-62660381D01*
X120423238Y-63660381D01*
X89927381Y-73093467D02*
X90641667Y-73093467D01*
X90784524Y-73045847D01*
X90879762Y-72950609D01*
X90927381Y-72807752D01*
X90927381Y-72712514D01*
X90927381Y-73569657D02*
X89927381Y-73569657D01*
X89927381Y-73950610D01*
X89975000Y-74045848D01*
X90022619Y-74093467D01*
X90117857Y-74141086D01*
X90260714Y-74141086D01*
X90355952Y-74093467D01*
X90403571Y-74045848D01*
X90451190Y-73950610D01*
X90451190Y-73569657D01*
X90927381Y-75093467D02*
X90927381Y-74522038D01*
X90927381Y-74807752D02*
X89927381Y-74807752D01*
X90070238Y-74712514D01*
X90165476Y-74617276D01*
X90213095Y-74522038D01*
X115501881Y-81900905D02*
X114501881Y-81900905D01*
X114501881Y-82281858D01*
X114549500Y-82377096D01*
X114597119Y-82424715D01*
X114692357Y-82472334D01*
X114835214Y-82472334D01*
X114930452Y-82424715D01*
X114978071Y-82377096D01*
X115025690Y-82281858D01*
X115025690Y-81900905D01*
X114501881Y-82805667D02*
X114501881Y-83424715D01*
X114882833Y-83091381D01*
X114882833Y-83234239D01*
X114930452Y-83329477D01*
X114978071Y-83377096D01*
X115073310Y-83424715D01*
X115311405Y-83424715D01*
X115406643Y-83377096D01*
X115454262Y-83329477D01*
X115501881Y-83234239D01*
X115501881Y-82948524D01*
X115454262Y-82853286D01*
X115406643Y-82805667D01*
X115454262Y-84393357D02*
X115501881Y-84536214D01*
X115501881Y-84774310D01*
X115454262Y-84869548D01*
X115406643Y-84917167D01*
X115311405Y-84964786D01*
X115216167Y-84964786D01*
X115120929Y-84917167D01*
X115073310Y-84869548D01*
X115025690Y-84774310D01*
X114978071Y-84583833D01*
X114930452Y-84488595D01*
X114882833Y-84440976D01*
X114787595Y-84393357D01*
X114692357Y-84393357D01*
X114597119Y-84440976D01*
X114549500Y-84488595D01*
X114501881Y-84583833D01*
X114501881Y-84821929D01*
X114549500Y-84964786D01*
X114501881Y-85298119D02*
X115501881Y-85536214D01*
X114787595Y-85726691D01*
X115501881Y-85917167D01*
X114501881Y-86155262D01*
X115501881Y-86536214D02*
X114501881Y-86536214D01*
X114501881Y-86774309D01*
X114549500Y-86917167D01*
X114644738Y-87012405D01*
X114739976Y-87060024D01*
X114930452Y-87107643D01*
X115073310Y-87107643D01*
X115263786Y-87060024D01*
X115359024Y-87012405D01*
X115454262Y-86917167D01*
X115501881Y-86774309D01*
X115501881Y-86536214D01*
X125587881Y-71334405D02*
X124587881Y-71334405D01*
X124587881Y-71715358D01*
X124635500Y-71810596D01*
X124683119Y-71858215D01*
X124778357Y-71905834D01*
X124921214Y-71905834D01*
X125016452Y-71858215D01*
X125064071Y-71810596D01*
X125111690Y-71715358D01*
X125111690Y-71334405D01*
X124921214Y-72762977D02*
X125587881Y-72762977D01*
X124540262Y-72524881D02*
X125254548Y-72286786D01*
X125254548Y-72905834D01*
X110307381Y-80605334D02*
X109831190Y-80272000D01*
X110307381Y-80033905D02*
X109307381Y-80033905D01*
X109307381Y-80414858D01*
X109355000Y-80510096D01*
X109402619Y-80557715D01*
X109497857Y-80605334D01*
X109640714Y-80605334D01*
X109735952Y-80557715D01*
X109783571Y-80510096D01*
X109831190Y-80414858D01*
X109831190Y-80033905D01*
X110307381Y-81557715D02*
X110307381Y-80986286D01*
X110307381Y-81272000D02*
X109307381Y-81272000D01*
X109450238Y-81176762D01*
X109545476Y-81081524D01*
X109593095Y-80986286D01*
X98674381Y-68565834D02*
X98198190Y-68232500D01*
X98674381Y-67994405D02*
X97674381Y-67994405D01*
X97674381Y-68375358D01*
X97722000Y-68470596D01*
X97769619Y-68518215D01*
X97864857Y-68565834D01*
X98007714Y-68565834D01*
X98102952Y-68518215D01*
X98150571Y-68470596D01*
X98198190Y-68375358D01*
X98198190Y-67994405D01*
X97769619Y-68946786D02*
X97722000Y-68994405D01*
X97674381Y-69089643D01*
X97674381Y-69327739D01*
X97722000Y-69422977D01*
X97769619Y-69470596D01*
X97864857Y-69518215D01*
X97960095Y-69518215D01*
X98102952Y-69470596D01*
X98674381Y-68899167D01*
X98674381Y-69518215D01*
X110805946Y-86864731D02*
X111139280Y-86388540D01*
X111377375Y-86864731D02*
X111377375Y-85864731D01*
X110996422Y-85864731D01*
X110901184Y-85912350D01*
X110853565Y-85959969D01*
X110805946Y-86055207D01*
X110805946Y-86198064D01*
X110853565Y-86293302D01*
X110901184Y-86340921D01*
X110996422Y-86388540D01*
X111377375Y-86388540D01*
X110472613Y-85864731D02*
X109853565Y-85864731D01*
X110186899Y-86245683D01*
X110044041Y-86245683D01*
X109948803Y-86293302D01*
X109901184Y-86340921D01*
X109853565Y-86436160D01*
X109853565Y-86674255D01*
X109901184Y-86769493D01*
X109948803Y-86817112D01*
X110044041Y-86864731D01*
X110329756Y-86864731D01*
X110424994Y-86817112D01*
X110472613Y-86769493D01*
X110805946Y-88121967D02*
X111139280Y-87645776D01*
X111377375Y-88121967D02*
X111377375Y-87121967D01*
X110996422Y-87121967D01*
X110901184Y-87169586D01*
X110853565Y-87217205D01*
X110805946Y-87312443D01*
X110805946Y-87455300D01*
X110853565Y-87550538D01*
X110901184Y-87598157D01*
X110996422Y-87645776D01*
X111377375Y-87645776D01*
X109948803Y-87455300D02*
X109948803Y-88121967D01*
X110186899Y-87074348D02*
X110424994Y-87788634D01*
X109805946Y-87788634D01*
X110805946Y-89379203D02*
X111139280Y-88903012D01*
X111377375Y-89379203D02*
X111377375Y-88379203D01*
X110996422Y-88379203D01*
X110901184Y-88426822D01*
X110853565Y-88474441D01*
X110805946Y-88569679D01*
X110805946Y-88712536D01*
X110853565Y-88807774D01*
X110901184Y-88855393D01*
X110996422Y-88903012D01*
X111377375Y-88903012D01*
X109901184Y-88379203D02*
X110377375Y-88379203D01*
X110424994Y-88855393D01*
X110377375Y-88807774D01*
X110282137Y-88760155D01*
X110044041Y-88760155D01*
X109948803Y-88807774D01*
X109901184Y-88855393D01*
X109853565Y-88950632D01*
X109853565Y-89188727D01*
X109901184Y-89283965D01*
X109948803Y-89331584D01*
X110044041Y-89379203D01*
X110282137Y-89379203D01*
X110377375Y-89331584D01*
X110424994Y-89283965D01*
X110805946Y-90636439D02*
X111139280Y-90160248D01*
X111377375Y-90636439D02*
X111377375Y-89636439D01*
X110996422Y-89636439D01*
X110901184Y-89684058D01*
X110853565Y-89731677D01*
X110805946Y-89826915D01*
X110805946Y-89969772D01*
X110853565Y-90065010D01*
X110901184Y-90112629D01*
X110996422Y-90160248D01*
X111377375Y-90160248D01*
X109948803Y-89636439D02*
X110139280Y-89636439D01*
X110234518Y-89684058D01*
X110282137Y-89731677D01*
X110377375Y-89874534D01*
X110424994Y-90065010D01*
X110424994Y-90445963D01*
X110377375Y-90541201D01*
X110329756Y-90588820D01*
X110234518Y-90636439D01*
X110044041Y-90636439D01*
X109948803Y-90588820D01*
X109901184Y-90541201D01*
X109853565Y-90445963D01*
X109853565Y-90207868D01*
X109901184Y-90112629D01*
X109948803Y-90065010D01*
X110044041Y-90017391D01*
X110234518Y-90017391D01*
X110329756Y-90065010D01*
X110377375Y-90112629D01*
X110424994Y-90207868D01*
X110929881Y-69010333D02*
X110453690Y-68676999D01*
X110929881Y-68438904D02*
X109929881Y-68438904D01*
X109929881Y-68819857D01*
X109977500Y-68915095D01*
X110025119Y-68962714D01*
X110120357Y-69010333D01*
X110263214Y-69010333D01*
X110358452Y-68962714D01*
X110406071Y-68915095D01*
X110453690Y-68819857D01*
X110453690Y-68438904D01*
X109929881Y-69343666D02*
X109929881Y-70010333D01*
X110929881Y-69581761D01*
X101150881Y-69010334D02*
X100674690Y-68677000D01*
X101150881Y-68438905D02*
X100150881Y-68438905D01*
X100150881Y-68819858D01*
X100198500Y-68915096D01*
X100246119Y-68962715D01*
X100341357Y-69010334D01*
X100484214Y-69010334D01*
X100579452Y-68962715D01*
X100627071Y-68915096D01*
X100674690Y-68819858D01*
X100674690Y-68438905D01*
X100579452Y-69581762D02*
X100531833Y-69486524D01*
X100484214Y-69438905D01*
X100388976Y-69391286D01*
X100341357Y-69391286D01*
X100246119Y-69438905D01*
X100198500Y-69486524D01*
X100150881Y-69581762D01*
X100150881Y-69772239D01*
X100198500Y-69867477D01*
X100246119Y-69915096D01*
X100341357Y-69962715D01*
X100388976Y-69962715D01*
X100484214Y-69915096D01*
X100531833Y-69867477D01*
X100579452Y-69772239D01*
X100579452Y-69581762D01*
X100627071Y-69486524D01*
X100674690Y-69438905D01*
X100769929Y-69391286D01*
X100960405Y-69391286D01*
X101055643Y-69438905D01*
X101103262Y-69486524D01*
X101150881Y-69581762D01*
X101150881Y-69772239D01*
X101103262Y-69867477D01*
X101055643Y-69915096D01*
X100960405Y-69962715D01*
X100769929Y-69962715D01*
X100674690Y-69915096D01*
X100627071Y-69867477D01*
X100579452Y-69772239D01*
X102420881Y-69042143D02*
X101944690Y-68708809D01*
X102420881Y-68470714D02*
X101420881Y-68470714D01*
X101420881Y-68851667D01*
X101468500Y-68946905D01*
X101516119Y-68994524D01*
X101611357Y-69042143D01*
X101754214Y-69042143D01*
X101849452Y-68994524D01*
X101897071Y-68946905D01*
X101944690Y-68851667D01*
X101944690Y-68470714D01*
X102420881Y-69994524D02*
X102420881Y-69423095D01*
X102420881Y-69708809D02*
X101420881Y-69708809D01*
X101563738Y-69613571D01*
X101658976Y-69518333D01*
X101706595Y-69423095D01*
X101420881Y-70613571D02*
X101420881Y-70708810D01*
X101468500Y-70804048D01*
X101516119Y-70851667D01*
X101611357Y-70899286D01*
X101801833Y-70946905D01*
X102039929Y-70946905D01*
X102230405Y-70899286D01*
X102325643Y-70851667D01*
X102373262Y-70804048D01*
X102420881Y-70708810D01*
X102420881Y-70613571D01*
X102373262Y-70518333D01*
X102325643Y-70470714D01*
X102230405Y-70423095D01*
X102039929Y-70375476D01*
X101801833Y-70375476D01*
X101611357Y-70423095D01*
X101516119Y-70470714D01*
X101468500Y-70518333D01*
X101420881Y-70613571D01*
X71508857Y-101163381D02*
X71842191Y-100687190D01*
X72080286Y-101163381D02*
X72080286Y-100163381D01*
X71699333Y-100163381D01*
X71604095Y-100211000D01*
X71556476Y-100258619D01*
X71508857Y-100353857D01*
X71508857Y-100496714D01*
X71556476Y-100591952D01*
X71604095Y-100639571D01*
X71699333Y-100687190D01*
X72080286Y-100687190D01*
X70556476Y-101163381D02*
X71127905Y-101163381D01*
X70842191Y-101163381D02*
X70842191Y-100163381D01*
X70937429Y-100306238D01*
X71032667Y-100401476D01*
X71127905Y-100449095D01*
X69604095Y-101163381D02*
X70175524Y-101163381D01*
X69889810Y-101163381D02*
X69889810Y-100163381D01*
X69985048Y-100306238D01*
X70080286Y-100401476D01*
X70175524Y-100449095D01*
X87256857Y-101163381D02*
X87590191Y-100687190D01*
X87828286Y-101163381D02*
X87828286Y-100163381D01*
X87447333Y-100163381D01*
X87352095Y-100211000D01*
X87304476Y-100258619D01*
X87256857Y-100353857D01*
X87256857Y-100496714D01*
X87304476Y-100591952D01*
X87352095Y-100639571D01*
X87447333Y-100687190D01*
X87828286Y-100687190D01*
X86304476Y-101163381D02*
X86875905Y-101163381D01*
X86590191Y-101163381D02*
X86590191Y-100163381D01*
X86685429Y-100306238D01*
X86780667Y-100401476D01*
X86875905Y-100449095D01*
X85923524Y-100258619D02*
X85875905Y-100211000D01*
X85780667Y-100163381D01*
X85542571Y-100163381D01*
X85447333Y-100211000D01*
X85399714Y-100258619D01*
X85352095Y-100353857D01*
X85352095Y-100449095D01*
X85399714Y-100591952D01*
X85971143Y-101163381D01*
X85352095Y-101163381D01*
X100596023Y-89142528D02*
X101168443Y-89714948D01*
X101202115Y-89815963D01*
X101202115Y-89883306D01*
X101168443Y-89984321D01*
X101033755Y-90119009D01*
X100932740Y-90152681D01*
X100865397Y-90152681D01*
X100764382Y-90119009D01*
X100191962Y-89546589D01*
X100191962Y-90960803D02*
X100596023Y-90556741D01*
X100393993Y-90758772D02*
X99686886Y-90051665D01*
X99855245Y-90085337D01*
X99989931Y-90085337D01*
X100090947Y-90051665D01*
D11*
X94770646Y-77645291D02*
X94716771Y-77753040D01*
X94582084Y-77887727D01*
X94501272Y-77914665D01*
X94447396Y-77914665D01*
X94366584Y-77887727D01*
X94312709Y-77833852D01*
X94285772Y-77753040D01*
X94285773Y-77699165D01*
X94312709Y-77618353D01*
X94393522Y-77483666D01*
X94420460Y-77402854D01*
X94420460Y-77348979D01*
X94393522Y-77268167D01*
X94339647Y-77214292D01*
X94258835Y-77187354D01*
X94204960Y-77187354D01*
X94124148Y-77214292D01*
X93989461Y-77348979D01*
X93935586Y-77456729D01*
X93747025Y-77591416D02*
X93423776Y-77914665D01*
X94151085Y-78318726D02*
X93585400Y-77753040D01*
X93800899Y-78668912D02*
X93235214Y-78103227D01*
X93450712Y-78695849D01*
X92858089Y-78480351D01*
X93423775Y-79046036D01*
X92642590Y-78695850D02*
X92292404Y-79046036D01*
X92696465Y-79072973D01*
X92615653Y-79153786D01*
X92588716Y-79234597D01*
X92588715Y-79288473D01*
X92615653Y-79369285D01*
X92750340Y-79503972D01*
X92831152Y-79530909D01*
X92885027Y-79530909D01*
X92965839Y-79503972D01*
X93127464Y-79342347D01*
X93154401Y-79261535D01*
X93154400Y-79207660D01*
X92130779Y-79315410D02*
X92076905Y-79315410D01*
X91996092Y-79342348D01*
X91861405Y-79477035D01*
X91834468Y-79557846D01*
X91834468Y-79611721D01*
X91861405Y-79692534D01*
X91915280Y-79746408D01*
X92023030Y-79800284D01*
X92669527Y-79800284D01*
X92319341Y-80150470D01*
X91592031Y-80285157D02*
X91780593Y-80096595D01*
X92076905Y-80392906D02*
X91511219Y-79827221D01*
X91241845Y-80096595D01*
X90972471Y-80743092D02*
X91349595Y-81120216D01*
X90891659Y-80392906D02*
X91430407Y-80662280D01*
X91080221Y-81012466D01*
X91107158Y-81362653D02*
X90433723Y-81281840D01*
X90730034Y-80985529D02*
X90810847Y-81658964D01*
X90649222Y-81820589D02*
X89975787Y-81739776D01*
X90272098Y-81443465D02*
X90352911Y-82116900D01*
X89814163Y-82655648D02*
X89733351Y-82197711D01*
X90137412Y-82332399D02*
X89571727Y-81766714D01*
X89356227Y-81982213D01*
X89329289Y-82063025D01*
X89329289Y-82116900D01*
X89356227Y-82197712D01*
X89437039Y-82278524D01*
X89517851Y-82305462D01*
X89571726Y-82305462D01*
X89652538Y-82278524D01*
X89868038Y-82063025D01*
X89625601Y-82844210D02*
X88952166Y-82763397D01*
X89248477Y-82467086D02*
X89329290Y-83140521D01*
D12*
X70806381Y-92481595D02*
X71615905Y-92481595D01*
X71711143Y-92529214D01*
X71758762Y-92576833D01*
X71806381Y-92672071D01*
X71806381Y-92862548D01*
X71758762Y-92957786D01*
X71711143Y-93005405D01*
X71615905Y-93053024D01*
X70806381Y-93053024D01*
X70806381Y-94005405D02*
X70806381Y-93529214D01*
X71282571Y-93481595D01*
X71234952Y-93529214D01*
X71187333Y-93624452D01*
X71187333Y-93862548D01*
X71234952Y-93957786D01*
X71282571Y-94005405D01*
X71377810Y-94053024D01*
X71615905Y-94053024D01*
X71711143Y-94005405D01*
X71758762Y-93957786D01*
X71806381Y-93862548D01*
X71806381Y-93624452D01*
X71758762Y-93529214D01*
X71711143Y-93481595D01*
X78426381Y-92481595D02*
X79235905Y-92481595D01*
X79331143Y-92529214D01*
X79378762Y-92576833D01*
X79426381Y-92672071D01*
X79426381Y-92862548D01*
X79378762Y-92957786D01*
X79331143Y-93005405D01*
X79235905Y-93053024D01*
X78426381Y-93053024D01*
X78426381Y-93433976D02*
X78426381Y-94100643D01*
X79426381Y-93672071D01*
X93173691Y-92473190D02*
X93173691Y-92949381D01*
X93507024Y-91949381D02*
X93173691Y-92473190D01*
X92840357Y-91949381D01*
X91983214Y-92949381D02*
X92554643Y-92949381D01*
X92268929Y-92949381D02*
X92268929Y-91949381D01*
X92364167Y-92092238D01*
X92459405Y-92187476D01*
X92554643Y-92235095D01*
X96396143Y-70534334D02*
X96443762Y-70486715D01*
X96491381Y-70343858D01*
X96491381Y-70248620D01*
X96443762Y-70105762D01*
X96348524Y-70010524D01*
X96253286Y-69962905D01*
X96062810Y-69915286D01*
X95919952Y-69915286D01*
X95729476Y-69962905D01*
X95634238Y-70010524D01*
X95539000Y-70105762D01*
X95491381Y-70248620D01*
X95491381Y-70343858D01*
X95539000Y-70486715D01*
X95586619Y-70534334D01*
X96491381Y-71486715D02*
X96491381Y-70915286D01*
X96491381Y-71201000D02*
X95491381Y-71201000D01*
X95634238Y-71105762D01*
X95729476Y-71010524D01*
X95777095Y-70915286D01*
X93308666Y-57747143D02*
X93356285Y-57794762D01*
X93499142Y-57842381D01*
X93594380Y-57842381D01*
X93737238Y-57794762D01*
X93832476Y-57699524D01*
X93880095Y-57604286D01*
X93927714Y-57413810D01*
X93927714Y-57270952D01*
X93880095Y-57080476D01*
X93832476Y-56985238D01*
X93737238Y-56890000D01*
X93594380Y-56842381D01*
X93499142Y-56842381D01*
X93356285Y-56890000D01*
X93308666Y-56937619D01*
X92927714Y-56937619D02*
X92880095Y-56890000D01*
X92784857Y-56842381D01*
X92546761Y-56842381D01*
X92451523Y-56890000D01*
X92403904Y-56937619D01*
X92356285Y-57032857D01*
X92356285Y-57128095D01*
X92403904Y-57270952D01*
X92975333Y-57842381D01*
X92356285Y-57842381D01*
%LPC*%
D13*
X65000000Y-55000000D03*
X65000000Y-105000000D03*
X135000000Y-105000000D03*
D14*
X106350000Y-71293000D03*
X106350000Y-69093000D03*
D15*
X89763000Y-100990500D03*
X127763000Y-100990500D03*
D16*
X96663000Y-100990500D03*
X120863000Y-100990500D03*
D17*
X89763000Y-92790500D03*
D10*
G36*
X95571281Y-76585102D02*
X94687398Y-75701219D01*
X95394505Y-74994112D01*
X96278388Y-75877995D01*
X95571281Y-76585102D01*
X95571281Y-76585102D01*
G37*
G36*
X96985495Y-75170888D02*
X96101612Y-74287005D01*
X96808719Y-73579898D01*
X97692602Y-74463781D01*
X96985495Y-75170888D01*
X96985495Y-75170888D01*
G37*
D18*
X89141500Y-89572500D03*
X89141500Y-91072500D03*
D19*
X93447500Y-92481500D03*
X91947500Y-92481500D03*
D20*
X106924000Y-63208000D03*
D21*
X108824000Y-63208000D03*
D20*
X122418000Y-63208000D03*
D21*
X124318000Y-63208000D03*
D22*
X71262000Y-103163500D03*
X86062000Y-103163500D03*
D23*
X70537000Y-98323500D03*
X86787000Y-98323500D03*
D24*
X76112000Y-98323500D03*
X77132000Y-100863500D03*
X75092000Y-100863500D03*
X78152000Y-98323500D03*
X79172000Y-100863500D03*
X80192000Y-98323500D03*
X81212000Y-100863500D03*
X82232000Y-98323500D03*
D25*
X90475000Y-69685000D03*
X90475000Y-71564600D03*
D26*
X91872000Y-60922000D03*
X94412000Y-60922000D03*
X96952000Y-60922000D03*
X92634000Y-71844000D03*
X92634000Y-69304000D03*
X92634000Y-66764000D03*
X120586500Y-89598500D03*
X120586500Y-87058500D03*
X120586500Y-84518500D03*
X120586500Y-81978500D03*
X120586500Y-79438500D03*
D27*
X122745500Y-72072500D03*
D28*
X120205500Y-72072500D03*
X117665500Y-72072500D03*
X115125500Y-72072500D03*
D26*
X112128500Y-85115500D03*
X112128500Y-82575500D03*
X112128500Y-80035500D03*
X102032000Y-60922000D03*
X104572000Y-60922000D03*
X107112000Y-60922000D03*
X112192000Y-60922000D03*
X114732000Y-60922000D03*
X117272000Y-60922000D03*
X122352000Y-60922000D03*
X124892000Y-60922000D03*
X127432000Y-60922000D03*
D14*
X109855000Y-82572501D03*
X109855000Y-84772501D03*
X98222000Y-67038500D03*
X98222000Y-64838500D03*
D29*
X106126783Y-86412350D03*
X108326783Y-86412350D03*
X106126783Y-87669586D03*
X108326783Y-87669586D03*
X106126783Y-88926822D03*
X108326783Y-88926822D03*
X106126783Y-90184058D03*
X108326783Y-90184058D03*
D14*
X107874000Y-71293000D03*
X107874000Y-69093000D03*
X103302000Y-71293000D03*
X103302000Y-69093000D03*
X104826000Y-71293000D03*
X104826000Y-69093000D03*
X73203000Y-100693500D03*
X73203000Y-98493500D03*
X84252000Y-98493500D03*
X84252000Y-100693500D03*
D10*
G36*
X98355977Y-89128101D02*
X98179200Y-88951324D01*
X98886307Y-88244217D01*
X99063084Y-88420994D01*
X98355977Y-89128101D01*
X98355977Y-89128101D01*
G37*
G36*
X98002423Y-88774548D02*
X97825646Y-88597771D01*
X98532753Y-87890664D01*
X98709530Y-88067441D01*
X98002423Y-88774548D01*
X98002423Y-88774548D01*
G37*
G36*
X97648870Y-88420994D02*
X97472093Y-88244217D01*
X98179200Y-87537110D01*
X98355977Y-87713887D01*
X97648870Y-88420994D01*
X97648870Y-88420994D01*
G37*
G36*
X97295317Y-88067441D02*
X97118540Y-87890664D01*
X97825647Y-87183557D01*
X98002424Y-87360334D01*
X97295317Y-88067441D01*
X97295317Y-88067441D01*
G37*
G36*
X96941763Y-87713888D02*
X96764986Y-87537111D01*
X97472093Y-86830004D01*
X97648870Y-87006781D01*
X96941763Y-87713888D01*
X96941763Y-87713888D01*
G37*
G36*
X96588210Y-87360334D02*
X96411433Y-87183557D01*
X97118540Y-86476450D01*
X97295317Y-86653227D01*
X96588210Y-87360334D01*
X96588210Y-87360334D01*
G37*
G36*
X96234656Y-87006781D02*
X96057879Y-86830004D01*
X96764986Y-86122897D01*
X96941763Y-86299674D01*
X96234656Y-87006781D01*
X96234656Y-87006781D01*
G37*
G36*
X95881103Y-86653227D02*
X95704326Y-86476450D01*
X96411433Y-85769343D01*
X96588210Y-85946120D01*
X95881103Y-86653227D01*
X95881103Y-86653227D01*
G37*
G36*
X95527550Y-86299674D02*
X95350773Y-86122897D01*
X96057880Y-85415790D01*
X96234657Y-85592567D01*
X95527550Y-86299674D01*
X95527550Y-86299674D01*
G37*
G36*
X95173996Y-85946121D02*
X94997219Y-85769344D01*
X95704326Y-85062237D01*
X95881103Y-85239014D01*
X95173996Y-85946121D01*
X95173996Y-85946121D01*
G37*
G36*
X94820443Y-85592567D02*
X94643666Y-85415790D01*
X95350773Y-84708683D01*
X95527550Y-84885460D01*
X94820443Y-85592567D01*
X94820443Y-85592567D01*
G37*
G36*
X94466889Y-85239014D02*
X94290112Y-85062237D01*
X94997219Y-84355130D01*
X95173996Y-84531907D01*
X94466889Y-85239014D01*
X94466889Y-85239014D01*
G37*
G36*
X94113336Y-84885460D02*
X93936559Y-84708683D01*
X94643666Y-84001576D01*
X94820443Y-84178353D01*
X94113336Y-84885460D01*
X94113336Y-84885460D01*
G37*
G36*
X93759783Y-84531907D02*
X93583006Y-84355130D01*
X94290113Y-83648023D01*
X94466890Y-83824800D01*
X93759783Y-84531907D01*
X93759783Y-84531907D01*
G37*
G36*
X93406229Y-84178354D02*
X93229452Y-84001577D01*
X93936559Y-83294470D01*
X94113336Y-83471247D01*
X93406229Y-84178354D01*
X93406229Y-84178354D01*
G37*
G36*
X93052676Y-83824800D02*
X92875899Y-83648023D01*
X93583006Y-82940916D01*
X93759783Y-83117693D01*
X93052676Y-83824800D01*
X93052676Y-83824800D01*
G37*
G36*
X92875899Y-80359977D02*
X93052676Y-80183200D01*
X93759783Y-80890307D01*
X93583006Y-81067084D01*
X92875899Y-80359977D01*
X92875899Y-80359977D01*
G37*
G36*
X93229452Y-80006423D02*
X93406229Y-79829646D01*
X94113336Y-80536753D01*
X93936559Y-80713530D01*
X93229452Y-80006423D01*
X93229452Y-80006423D01*
G37*
G36*
X93583006Y-79652870D02*
X93759783Y-79476093D01*
X94466890Y-80183200D01*
X94290113Y-80359977D01*
X93583006Y-79652870D01*
X93583006Y-79652870D01*
G37*
G36*
X93936559Y-79299317D02*
X94113336Y-79122540D01*
X94820443Y-79829647D01*
X94643666Y-80006424D01*
X93936559Y-79299317D01*
X93936559Y-79299317D01*
G37*
G36*
X94290112Y-78945763D02*
X94466889Y-78768986D01*
X95173996Y-79476093D01*
X94997219Y-79652870D01*
X94290112Y-78945763D01*
X94290112Y-78945763D01*
G37*
G36*
X94643666Y-78592210D02*
X94820443Y-78415433D01*
X95527550Y-79122540D01*
X95350773Y-79299317D01*
X94643666Y-78592210D01*
X94643666Y-78592210D01*
G37*
G36*
X94997219Y-78238656D02*
X95173996Y-78061879D01*
X95881103Y-78768986D01*
X95704326Y-78945763D01*
X94997219Y-78238656D01*
X94997219Y-78238656D01*
G37*
G36*
X95350773Y-77885103D02*
X95527550Y-77708326D01*
X96234657Y-78415433D01*
X96057880Y-78592210D01*
X95350773Y-77885103D01*
X95350773Y-77885103D01*
G37*
G36*
X95704326Y-77531550D02*
X95881103Y-77354773D01*
X96588210Y-78061880D01*
X96411433Y-78238657D01*
X95704326Y-77531550D01*
X95704326Y-77531550D01*
G37*
G36*
X96057879Y-77177996D02*
X96234656Y-77001219D01*
X96941763Y-77708326D01*
X96764986Y-77885103D01*
X96057879Y-77177996D01*
X96057879Y-77177996D01*
G37*
G36*
X96411433Y-76824443D02*
X96588210Y-76647666D01*
X97295317Y-77354773D01*
X97118540Y-77531550D01*
X96411433Y-76824443D01*
X96411433Y-76824443D01*
G37*
G36*
X96764986Y-76470889D02*
X96941763Y-76294112D01*
X97648870Y-77001219D01*
X97472093Y-77177996D01*
X96764986Y-76470889D01*
X96764986Y-76470889D01*
G37*
G36*
X97118540Y-76117336D02*
X97295317Y-75940559D01*
X98002424Y-76647666D01*
X97825647Y-76824443D01*
X97118540Y-76117336D01*
X97118540Y-76117336D01*
G37*
G36*
X97472093Y-75763783D02*
X97648870Y-75587006D01*
X98355977Y-76294113D01*
X98179200Y-76470890D01*
X97472093Y-75763783D01*
X97472093Y-75763783D01*
G37*
G36*
X97825646Y-75410229D02*
X98002423Y-75233452D01*
X98709530Y-75940559D01*
X98532753Y-76117336D01*
X97825646Y-75410229D01*
X97825646Y-75410229D01*
G37*
G36*
X98179200Y-75056676D02*
X98355977Y-74879899D01*
X99063084Y-75587006D01*
X98886307Y-75763783D01*
X98179200Y-75056676D01*
X98179200Y-75056676D01*
G37*
G36*
X101113693Y-75763783D02*
X100936916Y-75587006D01*
X101644023Y-74879899D01*
X101820800Y-75056676D01*
X101113693Y-75763783D01*
X101113693Y-75763783D01*
G37*
G36*
X101467247Y-76117336D02*
X101290470Y-75940559D01*
X101997577Y-75233452D01*
X102174354Y-75410229D01*
X101467247Y-76117336D01*
X101467247Y-76117336D01*
G37*
G36*
X101820800Y-76470890D02*
X101644023Y-76294113D01*
X102351130Y-75587006D01*
X102527907Y-75763783D01*
X101820800Y-76470890D01*
X101820800Y-76470890D01*
G37*
G36*
X102174353Y-76824443D02*
X101997576Y-76647666D01*
X102704683Y-75940559D01*
X102881460Y-76117336D01*
X102174353Y-76824443D01*
X102174353Y-76824443D01*
G37*
G36*
X102527907Y-77177996D02*
X102351130Y-77001219D01*
X103058237Y-76294112D01*
X103235014Y-76470889D01*
X102527907Y-77177996D01*
X102527907Y-77177996D01*
G37*
G36*
X102881460Y-77531550D02*
X102704683Y-77354773D01*
X103411790Y-76647666D01*
X103588567Y-76824443D01*
X102881460Y-77531550D01*
X102881460Y-77531550D01*
G37*
G36*
X103235014Y-77885103D02*
X103058237Y-77708326D01*
X103765344Y-77001219D01*
X103942121Y-77177996D01*
X103235014Y-77885103D01*
X103235014Y-77885103D01*
G37*
G36*
X103588567Y-78238657D02*
X103411790Y-78061880D01*
X104118897Y-77354773D01*
X104295674Y-77531550D01*
X103588567Y-78238657D01*
X103588567Y-78238657D01*
G37*
G36*
X103942120Y-78592210D02*
X103765343Y-78415433D01*
X104472450Y-77708326D01*
X104649227Y-77885103D01*
X103942120Y-78592210D01*
X103942120Y-78592210D01*
G37*
G36*
X104295674Y-78945763D02*
X104118897Y-78768986D01*
X104826004Y-78061879D01*
X105002781Y-78238656D01*
X104295674Y-78945763D01*
X104295674Y-78945763D01*
G37*
G36*
X104649227Y-79299317D02*
X104472450Y-79122540D01*
X105179557Y-78415433D01*
X105356334Y-78592210D01*
X104649227Y-79299317D01*
X104649227Y-79299317D01*
G37*
G36*
X105002781Y-79652870D02*
X104826004Y-79476093D01*
X105533111Y-78768986D01*
X105709888Y-78945763D01*
X105002781Y-79652870D01*
X105002781Y-79652870D01*
G37*
G36*
X105356334Y-80006424D02*
X105179557Y-79829647D01*
X105886664Y-79122540D01*
X106063441Y-79299317D01*
X105356334Y-80006424D01*
X105356334Y-80006424D01*
G37*
G36*
X105709887Y-80359977D02*
X105533110Y-80183200D01*
X106240217Y-79476093D01*
X106416994Y-79652870D01*
X105709887Y-80359977D01*
X105709887Y-80359977D01*
G37*
G36*
X106063441Y-80713530D02*
X105886664Y-80536753D01*
X106593771Y-79829646D01*
X106770548Y-80006423D01*
X106063441Y-80713530D01*
X106063441Y-80713530D01*
G37*
G36*
X106416994Y-81067084D02*
X106240217Y-80890307D01*
X106947324Y-80183200D01*
X107124101Y-80359977D01*
X106416994Y-81067084D01*
X106416994Y-81067084D01*
G37*
G36*
X106240217Y-83117693D02*
X106416994Y-82940916D01*
X107124101Y-83648023D01*
X106947324Y-83824800D01*
X106240217Y-83117693D01*
X106240217Y-83117693D01*
G37*
G36*
X105886664Y-83471247D02*
X106063441Y-83294470D01*
X106770548Y-84001577D01*
X106593771Y-84178354D01*
X105886664Y-83471247D01*
X105886664Y-83471247D01*
G37*
G36*
X105533110Y-83824800D02*
X105709887Y-83648023D01*
X106416994Y-84355130D01*
X106240217Y-84531907D01*
X105533110Y-83824800D01*
X105533110Y-83824800D01*
G37*
G36*
X105179557Y-84178353D02*
X105356334Y-84001576D01*
X106063441Y-84708683D01*
X105886664Y-84885460D01*
X105179557Y-84178353D01*
X105179557Y-84178353D01*
G37*
G36*
X104826004Y-84531907D02*
X105002781Y-84355130D01*
X105709888Y-85062237D01*
X105533111Y-85239014D01*
X104826004Y-84531907D01*
X104826004Y-84531907D01*
G37*
G36*
X104472450Y-84885460D02*
X104649227Y-84708683D01*
X105356334Y-85415790D01*
X105179557Y-85592567D01*
X104472450Y-84885460D01*
X104472450Y-84885460D01*
G37*
G36*
X104118897Y-85239014D02*
X104295674Y-85062237D01*
X105002781Y-85769344D01*
X104826004Y-85946121D01*
X104118897Y-85239014D01*
X104118897Y-85239014D01*
G37*
G36*
X103765343Y-85592567D02*
X103942120Y-85415790D01*
X104649227Y-86122897D01*
X104472450Y-86299674D01*
X103765343Y-85592567D01*
X103765343Y-85592567D01*
G37*
G36*
X103411790Y-85946120D02*
X103588567Y-85769343D01*
X104295674Y-86476450D01*
X104118897Y-86653227D01*
X103411790Y-85946120D01*
X103411790Y-85946120D01*
G37*
G36*
X103058237Y-86299674D02*
X103235014Y-86122897D01*
X103942121Y-86830004D01*
X103765344Y-87006781D01*
X103058237Y-86299674D01*
X103058237Y-86299674D01*
G37*
G36*
X102704683Y-86653227D02*
X102881460Y-86476450D01*
X103588567Y-87183557D01*
X103411790Y-87360334D01*
X102704683Y-86653227D01*
X102704683Y-86653227D01*
G37*
G36*
X102351130Y-87006781D02*
X102527907Y-86830004D01*
X103235014Y-87537111D01*
X103058237Y-87713888D01*
X102351130Y-87006781D01*
X102351130Y-87006781D01*
G37*
G36*
X101997576Y-87360334D02*
X102174353Y-87183557D01*
X102881460Y-87890664D01*
X102704683Y-88067441D01*
X101997576Y-87360334D01*
X101997576Y-87360334D01*
G37*
G36*
X101644023Y-87713887D02*
X101820800Y-87537110D01*
X102527907Y-88244217D01*
X102351130Y-88420994D01*
X101644023Y-87713887D01*
X101644023Y-87713887D01*
G37*
G36*
X101290470Y-88067441D02*
X101467247Y-87890664D01*
X102174354Y-88597771D01*
X101997577Y-88774548D01*
X101290470Y-88067441D01*
X101290470Y-88067441D01*
G37*
G36*
X100936916Y-88420994D02*
X101113693Y-88244217D01*
X101820800Y-88951324D01*
X101644023Y-89128101D01*
X100936916Y-88420994D01*
X100936916Y-88420994D01*
G37*
D30*
X86588800Y-83020000D03*
X86588800Y-80480000D03*
X86588800Y-77940000D03*
X86588800Y-75400000D03*
X86588800Y-72860000D03*
X86588800Y-70320000D03*
X86588800Y-65240000D03*
X86588800Y-67780000D03*
X86588800Y-62700000D03*
X86588800Y-60160000D03*
X86588800Y-57620000D03*
X86588800Y-55080000D03*
X86588800Y-85560000D03*
X86588800Y-52540000D03*
X71348800Y-60160000D03*
X71348800Y-57620000D03*
X71348800Y-55080000D03*
X71348800Y-62700000D03*
X71348800Y-52540000D03*
X71348800Y-65240000D03*
X71348800Y-67780000D03*
X71348800Y-85560000D03*
X71348800Y-80480000D03*
X71348800Y-75400000D03*
X71348800Y-83020000D03*
X71348800Y-70320000D03*
X71348800Y-72860000D03*
X71348800Y-77940000D03*
D31*
X106858000Y-73368000D03*
D32*
X109398000Y-65748000D03*
X109398000Y-73368000D03*
X106858000Y-65748000D03*
D31*
X101778000Y-73368000D03*
D32*
X104318000Y-65748000D03*
X104318000Y-73368000D03*
X101778000Y-65748000D03*
D33*
X72949000Y-90543500D03*
X74219000Y-90543500D03*
X75489000Y-90543500D03*
X76759000Y-90543500D03*
X76759000Y-95943500D03*
X75489000Y-95943500D03*
X74219000Y-95943500D03*
X72949000Y-95943500D03*
D26*
X127940000Y-75908000D03*
X127940000Y-65748000D03*
X125400000Y-65748000D03*
X112700000Y-65748000D03*
X112700000Y-75908000D03*
D33*
X80569000Y-90543500D03*
X81839000Y-90543500D03*
X83109000Y-90543500D03*
X84379000Y-90543500D03*
X84379000Y-95943500D03*
X83109000Y-95943500D03*
X81839000Y-95943500D03*
X80569000Y-95943500D03*
D34*
X91247500Y-88397000D03*
X94147500Y-88397000D03*
X94147500Y-90597000D03*
X91247500Y-90597000D03*
D35*
X112446000Y-91338500D03*
D13*
X135000000Y-55000000D03*
D36*
X94539000Y-71701000D03*
X94539000Y-69701000D03*
D37*
X94142000Y-58890000D03*
X92142000Y-58890000D03*
M02*
